<?xml version="1.0" encoding="utf-8"?>
<!-- Generator: Adobe Illustrator 27.5.0, SVG Export Plug-In . SVG Version: 6.00 Build 0)  -->
<svg version="1.1" xmlns="http://www.w3.org/2000/svg" xmlns:xlink="http://www.w3.org/1999/xlink" x="0px" y="0px"
	 viewBox="0 0 500 500" style="enable-background:new 0 0 500 500;" xml:space="preserve">
<g id="BACKGROUND">
	<rect style="fill:#E9E9E9;" width="500" height="500"/>
	<g style="opacity:0.5;">
		<linearGradient id="SVGID_1_" gradientUnits="userSpaceOnUse" x1="245.2558" y1="448.3335" x2="245.2558" y2="216.4926">
			<stop  offset="0" style="stop-color:#FFFFFF"/>
			<stop  offset="1" style="stop-color:#7F7F7F"/>
		</linearGradient>
		<path style="fill:url(#SVGID_1_);" d="M385.824,242.21c5.624-15.164,8.702-31.565,8.702-48.686
			c0-38.395-15.457-73.175-40.481-98.472c9.214-4.036,15.653-13.23,15.653-23.933c0-14.426-11.695-26.121-26.121-26.121
			c-13.537,0-24.668,10.297-25.989,23.486c-18.962-9.587-40.396-14.994-63.095-14.994c-27.89,0-53.873,8.156-75.701,22.209
			c-8.22-13.331-22.951-22.221-39.762-22.221c-25.783,0-46.684,20.901-46.684,46.684c0,20.306,12.969,37.576,31.072,44
			c-5.785,15.353-8.958,31.985-8.958,49.362c0,12.641,1.685,24.886,4.825,36.535c-17.733,7.868-30.109,25.618-30.109,46.268
			c0,27.949,22.657,50.606,50.606,50.606c8.367,0,16.253-2.043,23.206-5.639c2.037,12.396,12.796,21.856,25.769,21.856
			c10.801,0,20.069-6.556,24.046-15.904c13.169,4.101,27.172,6.311,41.691,6.311c33.283,0,63.847-11.619,87.876-31.012
			c6.123,4.435,13.645,7.057,21.784,7.057c20.537,0,37.185-16.648,37.185-37.185C401.337,259.97,395.215,248.959,385.824,242.21z"/>
		
			<linearGradient id="SVGID_00000063629815975179192410000016189595353280421515_" gradientUnits="userSpaceOnUse" x1="420.1057" y1="448.3333" x2="420.1057" y2="216.4924">
			<stop  offset="0" style="stop-color:#FFFFFF"/>
			<stop  offset="1" style="stop-color:#7F7F7F"/>
		</linearGradient>
		<circle style="fill:url(#SVGID_00000063629815975179192410000016189595353280421515_);" cx="420.106" cy="111.901" r="18.102"/>
		
			<linearGradient id="SVGID_00000114787819580331404540000017893134903991088788_" gradientUnits="userSpaceOnUse" x1="77.7901" y1="448.333" x2="77.7901" y2="216.4922">
			<stop  offset="0" style="stop-color:#FFFFFF"/>
			<stop  offset="1" style="stop-color:#7F7F7F"/>
		</linearGradient>
		<circle style="fill:url(#SVGID_00000114787819580331404540000017893134903991088788_);" cx="77.79" cy="212.34" r="12.496"/>
		
			<linearGradient id="SVGID_00000038411199415610445080000015330016353664714674_" gradientUnits="userSpaceOnUse" x1="78.6271" y1="448.3343" x2="78.6271" y2="216.493">
			<stop  offset="0" style="stop-color:#FFFFFF"/>
			<stop  offset="1" style="stop-color:#7F7F7F"/>
		</linearGradient>
		<circle style="fill:url(#SVGID_00000038411199415610445080000015330016353664714674_);" cx="78.627" cy="50.404" r="10.298"/>
		
			<linearGradient id="SVGID_00000077298066261323526450000010167524339518072976_" gradientUnits="userSpaceOnUse" x1="178.2916" y1="448.3339" x2="178.2916" y2="216.4912">
			<stop  offset="0" style="stop-color:#FFFFFF"/>
			<stop  offset="1" style="stop-color:#7F7F7F"/>
		</linearGradient>
		<path style="fill:url(#SVGID_00000077298066261323526450000010167524339518072976_);" d="M178.292,356.293
			c-3.975,0-7.197,3.222-7.197,7.197c0,3.974,3.222,7.197,7.197,7.197c3.974,0,7.196-3.222,7.196-7.197
			C185.488,359.515,182.266,356.293,178.292,356.293z"/>
		
			<linearGradient id="SVGID_00000164506339737605833170000015168199269345375367_" gradientUnits="userSpaceOnUse" x1="345.3358" y1="448.3333" x2="345.3358" y2="216.4925">
			<stop  offset="0" style="stop-color:#FFFFFF"/>
			<stop  offset="1" style="stop-color:#7F7F7F"/>
		</linearGradient>
		<path style="fill:url(#SVGID_00000164506339737605833170000015168199269345375367_);" d="M345.336,336.039
			c-6.901,0-12.496,5.595-12.496,12.496c0,6.901,5.595,12.496,12.496,12.496c6.901,0,12.496-5.595,12.496-12.496
			C357.832,341.633,352.237,336.039,345.336,336.039z"/>
		
			<linearGradient id="SVGID_00000038371178117140012000000015248568670344365232_" gradientUnits="userSpaceOnUse" x1="434.0059" y1="448.3333" x2="434.0059" y2="216.4924">
			<stop  offset="0" style="stop-color:#FFFFFF"/>
			<stop  offset="1" style="stop-color:#7F7F7F"/>
		</linearGradient>
		<circle style="fill:url(#SVGID_00000038371178117140012000000015248568670344365232_);" cx="434.006" cy="246.209" r="20.917"/>
		
			<linearGradient id="SVGID_00000083088750678983440030000002076366375410338457_" gradientUnits="userSpaceOnUse" x1="85.2431" y1="448.3333" x2="85.2431" y2="216.4924">
			<stop  offset="0" style="stop-color:#FFFFFF"/>
			<stop  offset="1" style="stop-color:#7F7F7F"/>
		</linearGradient>
		<circle style="fill:url(#SVGID_00000083088750678983440030000002076366375410338457_);" cx="85.243" cy="359.292" r="20.917"/>
	</g>
</g>
<g id="OBJECTS">
	<g>
		<ellipse style="opacity:0.5;fill:#7F7F7F;" cx="242.512" cy="434.85" rx="44.5" ry="6"/>
		<g>
			<g>
				<g>
					<path style="fill:#1E2139;" d="M225.006,188.526l-6.163,3.406c0,0,1.086,74.668-0.543,87.43
						c-1.629,12.762-4.616,20.092,5.702,20.092c10.318,0,17.92-10.046,17.92-10.046s15.477,15.748,29.053,9.775
						c2.987-3.258,2.444-2.444,2.987-23.894c0.543-21.45,2.715-54.033,2.715-54.033s31.715,12.78,56.551-0.607
						c3.347-7.398-3.523-19.2-3.523-19.2s-34.7,14.796-63.281-12.602L225.006,188.526z"/>
					<g>
						<path style="fill:#1E2139;" d="M218.321,297.442l7.36,123.648c0,0,3.925,7.851,16.683,1.963l-1.472-108.928
							c0,0,3.925-2.944,8.341-0.981l-4.715,109.821c0,0,6.224,5.057,15.56-0.389l11.328-124.083c0,0-11.516,7.436-29.484-9.084
							C241.922,289.408,227.644,304.177,218.321,297.442z"/>
						<path style="fill:#111421;" d="M221.316,299.029c0,0,3.754,3.647,20.701-0.858c0,0,10.619,7.401,23.061,6.65
							c4.398,0.751,5.041,7.294,5.041,7.294l1.287-13.622c0,0-8.02,4.034-29.484-9.084
							C241.922,289.408,235.689,296.562,221.316,299.029z"/>
						<path style="fill:#1E2139;" d="M232.629,186.101l6.006,27.837l6.122,20.907c0,0-17.788-18.365-17.095-22.524
							c0.693-4.158,3.927-4.389,1.964-6.815c-1.964-2.426-5.307-2.235-5.307-2.581s-0.643-13.837-0.643-13.837l8.491-6.452
							L232.629,186.101z"/>
						<g style="opacity:0.49;">
							<path style="fill:none;" d="M219.385,218.906"/>
						</g>
						<g style="opacity:0.49;">
							<path style="fill:none;" d="M219.573,228.238"/>
						</g>
						<g style="opacity:0.49;">
							<path style="fill:#C2CEE4;" d="M239.765,232.314c-1.694-0.318-3.374-0.674-5.055-1.027c-1.681-0.348-3.352-0.74-5.036-1.067
								c-1.673-0.376-3.354-0.715-5.036-1.049c-1.682-0.335-3.366-0.648-5.066-0.934c1.725,0.019,3.442,0.211,5.149,0.446
								c1.708,0.234,3.396,0.579,5.086,0.908c1.679,0.381,3.357,0.764,5.018,1.216C236.486,231.261,238.139,231.739,239.765,232.314
								z"/>
						</g>
						<g>
							<g style="opacity:0.49;">
								<path style="fill:#C2CEE4;" d="M241.922,289.408c-0.069-3.54-0.068-7.078-0.056-10.616l0.115-10.613l0.264-10.611
									c0.115-3.536,0.24-7.073,0.437-10.607c0.071,3.54,0.069,7.078,0.058,10.616l-0.116,10.613l-0.265,10.611
									C242.244,282.337,242.118,285.873,241.922,289.408z"/>
							</g>
							<g style="opacity:0.49;">
								<path style="fill:#C2CEE4;" d="M223.676,189.088c0.165,2.303,0.356,4.606,0.5,6.91l0.42,6.914l-0.244-0.262
									c1.321,0.184,2.616,0.468,3.847,1.061c0.596,0.309,1.231,0.693,1.586,1.39c0.331,0.689,0.328,1.463,0.071,2.147
									c-0.496,1.365-1.779,2.13-1.921,3.299c-0.205,1.209-0.06,2.518,0.367,3.686c0.392,1.2,1.316,2.082,2.11,3.142l2.423,3.072
									c1.627,2.037,3.192,4.125,4.787,6.183c-1.694-1.98-3.419-3.932-5.081-5.933l-2.511-2.986l-1.257-1.509
									c-0.433-0.53-0.765-1.135-1.006-1.767c-0.474-1.27-0.648-2.636-0.434-3.998c0.051-0.332,0.166-0.708,0.352-1.016
									c0.178-0.308,0.382-0.576,0.581-0.837c0.397-0.517,0.786-1.013,0.999-1.558c0.215-0.529,0.204-1.159-0.027-1.649
									c-0.229-0.489-0.762-0.854-1.304-1.134c-1.113-0.555-2.394-0.856-3.644-1.041l-0.237-0.035l-0.007-0.227l-0.224-6.923
									C223.749,193.706,223.725,191.397,223.676,189.088z"/>
							</g>
							<g style="opacity:0.49;">
								<path style="fill:#C2CEE4;" d="M267.009,189.088c-0.049,2.309-0.073,4.619-0.143,6.926l-0.224,6.923l-0.007,0.227
									l-0.237,0.035c-1.249,0.186-2.53,0.486-3.644,1.041c-0.542,0.281-1.075,0.645-1.304,1.134
									c-0.23,0.49-0.242,1.12-0.027,1.649c0.213,0.545,0.602,1.041,0.999,1.558c0.199,0.261,0.404,0.529,0.581,0.837
									c0.186,0.308,0.3,0.685,0.352,1.016c0.213,1.363,0.039,2.728-0.434,3.998c-0.241,0.632-0.573,1.237-1.006,1.767
									l-1.256,1.509l-2.511,2.986c-1.662,2.001-3.387,3.953-5.081,5.933c1.595-2.059,3.16-4.146,4.787-6.183l2.423-3.072
									c0.793-1.06,1.718-1.942,2.11-3.142c0.427-1.168,0.572-2.477,0.367-3.686c-0.142-1.169-1.426-1.934-1.921-3.299
									c-0.257-0.683-0.26-1.457,0.071-2.147c0.355-0.697,0.99-1.081,1.586-1.39c1.231-0.593,2.526-0.876,3.847-1.061l-0.244,0.262
									l0.42-6.914C266.653,193.693,266.844,191.391,267.009,189.088z"/>
							</g>
							<g style="opacity:0.49;">
								<path style="fill:#C2CEE4;" d="M219.385,218.906c-0.012-1.893,0.009-3.78,0.021-5.667c0.007-1.887,0.055-3.772,0.027-5.657
									c0.023-1.885,0.002-3.769-0.036-5.652c-0.038-1.884-0.108-3.766-0.227-5.655c0.384,1.855,0.579,3.745,0.721,5.633
									c0.141,1.89,0.157,3.784,0.185,5.676c-0.026,1.892-0.065,3.784-0.178,5.672
									C219.784,215.143,219.639,217.029,219.385,218.906z"/>
							</g>
							<path style="fill:#1E2139;" d="M243.28,233.204c0,0-15.911-4.026-22.356-4.835c-0.369-0.022-0.796-0.06-1.24-0.122
								c-0.035-0.002-0.076-0.006-0.111-0.008l0-0.008c-0.874-0.13-1.797-0.356-2.453-0.756c-1.649-1.006-1.689-2.373-1.086-3.982
								c0.603-1.609,3.352-4.585,3.352-4.585l0,0l-0.542-26.974c0,0-8.689,7.059-16.834,20.635
								c-9.756,16.26-10.589,29.324,3.801,34.483c13.576,2.987,34.755,2.444,34.755,2.444S244.094,240.263,243.28,233.204z"/>
						</g>
					</g>
					<g>
						<path style="fill:#211722;" d="M228.127,423.45c0,0-3.572,3.966-11.757,6.17c-8.185,2.204-9.602,3.463-7.398,5.667
							c2.204,2.204,13.222,3.148,20.778,0.472c7.555-2.676,10.344-5.798,10.659-12.094
							C240.408,423.665,235.053,426.599,228.127,423.45z"/>
						<path style="fill:#211722;" d="M257.784,423.45c0,0,3.774,3.966,11.96,6.17c8.185,2.204,9.602,3.463,7.398,5.667
							c-2.204,2.204-13.222,3.148-20.778,0.472c-7.555-2.676-10.385-6.012-10.7-12.309
							C245.664,423.45,250.858,426.599,257.784,423.45z"/>
						<path style="fill:#1E2139;" d="M258.8,186.422l-8.309,27.657l-5.685,21.345c0,0,19.654-18.623,18.961-22.782
							c-0.693-4.158-3.927-4.389-1.964-6.815c1.964-2.426,4.389-2.657,4.389-3.003c0-0.346,0.231-13.976,0.231-13.976l-7.161-5.891
							L258.8,186.422z"/>
					</g>
				</g>
				<path style="fill:#FFC09C;" d="M333.648,196.764c0,0,0.108,5.743-5,9.09c0,0,3.523,9.688,2.994,13.211
					c0,0,13.211-3.523,14.972-22.194L333.648,196.764z"/>
			</g>
			<g>
				<path style="fill:#FFFFFF;" d="M232.167,182.635l6.468,31.302l5.742,19.663l6.04-18.854l10.511-30.147
					c0,0,0.72-5.509-7.004-5.873c0,0-7.492,4.001-15.814,0.264C238.111,178.989,234.33,174.896,232.167,182.635z"/>
				<path style="fill:#EC6343;" d="M239.444,190.49l2.541,10.164c0,0,2.657-1.617,6.353-0.462l2.541-7.161
					c0,0-0.116-5.198-3.927-8.316l-3.833,0.336C243.118,185.051,240.252,186.678,239.444,190.49z"/>
				<path style="fill:none;stroke:#FFFFFF;stroke-width:1.2871;stroke-miterlimit:10;" d="M246.952,184.715
					c0,0,5.429,2.888,3.812,13.63c0,0,8.663-6.006,9.934-12.706c1.271-6.699-6.773-6.913-6.773-6.913
					S252.381,183.098,246.952,184.715z"/>
				<path style="fill:#EC6343;" d="M238.635,213.938l3.35-13.283c0,0,3.234-1.848,6.353-0.462l2.079,14.554l-5.66,20.098
					L238.635,213.938z"/>
				<path style="fill:none;stroke:#FFFFFF;stroke-width:1.2871;stroke-miterlimit:10;" d="M239.429,195.594
					c0,0-8.961-7.643-6.853-14.232c2.109-6.589,5.535-2.372,5.535-2.372s2.108,6.062,5.008,6.062
					C243.118,185.051,237.847,187.687,239.429,195.594z"/>
			</g>
			<g style="opacity:0.49;">
				<path style="fill:#C2CEE4;" d="M219.171,249.046c1.788-0.045,3.573-0.027,5.357-0.006l5.348,0.121l5.343,0.198
					c1.781,0.062,3.559,0.16,5.345,0.135c-1.77,0.292-3.567,0.318-5.351,0.36c-1.787,0.031-3.572-0.022-5.358-0.051
					c-1.784-0.081-3.567-0.146-5.348-0.271C222.727,249.408,220.946,249.266,219.171,249.046z"/>
			</g>
		</g>
		<g>
			<path style="fill:#FFC09C;" d="M274.195,231.455c2.172-2.172,0.494-3.188-1.406-3.188c-1.901,0-17.57-0.462-20.675,1.651
				c-2.117,1.441-6.934,4.37-9.106,4.642c0,0,0.271,7.331-1.629,12.49c0,0,4.073,0.271,10.046,1.901c0,0,1.679,0.321,3.066,0.651
				c1.387,0.33,3.303-1.585,3.897-2.444c0.055-0.08,0.107-0.139,0.159-0.2c0.124-0.102,0.245-0.207,0.365-0.313
				c0.379-0.222,0.817-0.241,1.722-0.874c1.277-0.894,1.506-2.4,1.878-3.395c0.184-0.282,0.349-0.547,0.497-0.794
				c0.525-0.564,1.267-0.998,1.655-1.822c0.438-0.93,0.506-2.296,0.363-2.774c0.038-0.722-0.488-1.495-0.808-1.992
				C262.89,232.927,272.023,233.628,274.195,231.455z"/>
			<path style="fill:#FCA68A;" d="M242.14,243.79c0,0,10.503,3.105,13.937,2.246c3.435-0.859,3.963-2.246,4.69-3.105
				c0.727-0.859,2.243-1.349,2.243-1.349l-0.497,0.794c0,0-0.155,2.521-1.878,3.395c-1.722,0.874-1.722,0.874-1.722,0.874
				s-2.505,3.419-4.421,2.957c-1.916-0.462-10.505-2.396-13.113-2.552L242.14,243.79z"/>
		</g>
		<g>
			<path style="fill:#FFFFFF;" d="M316.082,192.96c0,0,1.554,42.601-1.855,64.707c-1.522,3.577-5.197-1.202-5.197-1.202
				s-1.679,7.385,29.507,5.631c0,0,26.358,0.293,30.456-7.979c4.097-8.273,3.403-31.341,3.403-31.341l-0.956-31.754L316.082,192.96z
				"/>
			<g>
				
					<line style="fill:none;stroke:#7F7F7F;stroke-width:1.2871;stroke-linecap:round;stroke-miterlimit:10;" x1="322.936" y1="205.497" x2="364.446" y2="203.888"/>
				
					<line style="fill:none;stroke:#7F7F7F;stroke-width:1.2871;stroke-linecap:round;stroke-miterlimit:10;" x1="322.936" y1="208.714" x2="364.446" y2="207.105"/>
				
					<line style="fill:none;stroke:#7F7F7F;stroke-width:1.2871;stroke-linecap:round;stroke-miterlimit:10;" x1="322.936" y1="211.61" x2="364.446" y2="210.001"/>
				
					<line style="fill:none;stroke:#7F7F7F;stroke-width:1.2871;stroke-linecap:round;stroke-miterlimit:10;" x1="322.775" y1="214.828" x2="364.285" y2="213.219"/>
				
					<line style="fill:none;stroke:#7F7F7F;stroke-width:1.2871;stroke-linecap:round;stroke-miterlimit:10;" x1="322.775" y1="218.368" x2="364.285" y2="216.759"/>
				
					<line style="fill:none;stroke:#7F7F7F;stroke-width:1.2871;stroke-linecap:round;stroke-miterlimit:10;" x1="322.615" y1="221.585" x2="364.124" y2="219.977"/>
				
					<line style="fill:none;stroke:#7F7F7F;stroke-width:1.2871;stroke-linecap:round;stroke-miterlimit:10;" x1="322.454" y1="224.964" x2="363.963" y2="223.355"/>
				
					<line style="fill:none;stroke:#7F7F7F;stroke-width:1.2871;stroke-linecap:round;stroke-miterlimit:10;" x1="322.132" y1="228.343" x2="363.641" y2="226.734"/>
				
					<line style="fill:none;stroke:#7F7F7F;stroke-width:0.9388;stroke-linecap:round;stroke-miterlimit:10;" x1="322.132" y1="231.842" x2="351.575" y2="230.636"/>
			</g>
			<g>
				<g>
					<g>
						<path style="fill:#838383;" d="M347.722,241.208c0.082,0.059,0.044,0.226-0.124,0.365c-0.162,0.14-0.435,0.217-0.656,0.196
							c-0.362-0.012-0.73-0.249-0.89-0.576c-0.17-0.318-0.195-0.715-0.025-1.059l0.788-1.595l-0.309,1.754
							c-0.079,0.45-0.209,0.893-0.497,1.301c-0.144,0.198-0.353,0.399-0.644,0.477c-0.284,0.079-0.597,0.023-0.835-0.152
							c-0.462-0.353-0.59-0.941-0.467-1.439c0.121-0.493,0.405-0.872,0.655-1.218l0.401-0.556l0.106,0.678
							c0.16,1.026-0.408,2.017-1.246,2.532c-0.424,0.26-0.942,0.397-1.455,0.334c-0.509-0.06-0.983-0.295-1.348-0.631
							c-0.741-0.642-1.116-1.783-0.729-2.747c0.184-0.473,0.41-0.84,0.726-1.239c0.164-0.199,0.442-0.403,0.757-0.441
							c0.31-0.047,0.607,0.034,0.849,0.169c0.492,0.25,0.821,0.817,0.855,1.334c0.054,0.524-0.068,1.009-0.217,1.447
							c-0.305,0.874-0.764,1.71-1.464,2.379c-0.347,0.333-0.774,0.609-1.255,0.769c-0.477,0.171-1.022,0.17-1.469,0.108
							c-0.454-0.055-0.865-0.124-1.213-0.07c-0.339,0.048-0.63,0.239-0.892,0.525c-0.517,0.586-0.887,1.372-1.025,2.154
							c-0.147,0.787,0.041,1.539,0.671,1.892c0.603,0.373,1.474,0.385,2.075,0.021c0.624-0.366,1.021-1.098,1.138-1.86
							c0.26-1.572-0.716-3.099-1.942-4.216c-0.611-0.572-1.366-1.093-1.975-1.873c-0.622-0.768-0.958-1.929-0.523-2.985
							c0.084-0.213,0.319-0.418,0.539-0.493c0.22-0.084,0.413-0.04,0.464,0.043c0.06,0.093,0.024,0.257,0.01,0.424
							c-0.019,0.166-0.034,0.318-0.079,0.432c-0.125,0.284-0.151,0.649-0.085,0.998c0.066,0.352,0.223,0.663,0.462,0.981
							c0.47,0.626,1.173,1.139,1.845,1.771c0.664,0.633,1.279,1.357,1.704,2.218c0.433,0.847,0.64,1.869,0.473,2.842
							c-0.16,0.961-0.67,1.94-1.589,2.474c-0.928,0.523-2.067,0.492-2.968-0.058c-0.451-0.273-0.818-0.734-0.974-1.25
							c-0.158-0.511-0.141-1.031-0.055-1.506c0.186-0.948,0.598-1.817,1.252-2.549c0.329-0.361,0.814-0.688,1.36-0.756
							c0.53-0.069,1,0.032,1.418,0.082c0.817,0.15,1.534-0.102,2.13-0.657c0.586-0.545,1.016-1.291,1.297-2.074
							c0.293-0.767,0.324-1.63-0.3-1.956c-0.302-0.156-0.554-0.145-0.776,0.118c-0.234,0.287-0.482,0.677-0.615,1.027
							c-0.295,0.702-0.035,1.538,0.539,2.06c0.56,0.539,1.415,0.669,2.076,0.247c0.659-0.39,1.111-1.187,0.994-1.932l0.507,0.123
							c-0.254,0.338-0.488,0.667-0.573,1.012c-0.094,0.319,0.019,0.704,0.247,0.874c0.224,0.166,0.539,0.098,0.742-0.202
							c0.213-0.289,0.344-0.684,0.414-1.071l0.479,0.159c-0.191,0.353,0.067,0.912,0.495,0.909
							C347.253,241.323,347.563,241.107,347.722,241.208"/>
					</g>
				</g>
			</g>
		</g>
		<g>
			<path style="fill:#FFC09C;" d="M336.477,183.973c0,0-4.742-0.812-5.712,2.581c-0.97,3.394,0.246,11.074,4.116,11.442
				c2.253,0,3.109-1.078,3.109-1.078s2.02,2.464,5.203,1.668c1.716-0.429,2.521-1.609,2.521-1.609s1.984,2.789,4.559,1.287
				c2.01-1.172,3.636-12.502,1.289-13.868c-2.347-1.366-5.727,0.123-5.727,0.123S341.636,178.996,336.477,183.973z"/>
			<path style="fill:#FCA68A;" d="M336.477,183.973c0,0,6.656-2.36,8.486,1.426c1.607,3.325,1.607,5.306,1.607,5.306
				s0.661-4.976,2.488-5.24c2.333-0.337,3.633,3.765,3.633,3.765s0.714-3.326-1.129-4.834c-1.843-1.507-5.727,0.123-5.727,0.123
				S341.929,178.717,336.477,183.973z"/>
			<g>
				<path style="fill:#EE967F;" d="M336.266,184.893c0.243,1.886,0.449,3.744,0.711,5.601c0.241,1.861,0.563,3.699,0.83,5.584
					c-0.758-1.748-1.206-3.616-1.467-5.497C336.094,188.698,336.003,186.783,336.266,184.893z"/>
			</g>
			<g>
				<path style="fill:#EE967F;" d="M345.91,196.21c0.041-1.648,0.185-3.258,0.299-4.873c0.123-1.616,0.218-3.214,0.273-4.859
					c0.453,1.594,0.476,3.273,0.368,4.907C346.714,193.021,346.45,194.649,345.91,196.21z"/>
			</g>
		</g>
		<g>
			<path style="fill:#532100;" d="M215.023,106.083c0,0-2.751,12.018,4.923,18.679c0,0,3.772-7.618,2.103-17.275
				C222.118,106.807,217.774,107.965,215.023,106.083z"/>
			<g>
				<path style="fill:#FFC09C;" d="M221.77,107.301c0,0,2.372,11.333-3.953,21.085c-6.325,9.752-10.015,27.41,5.008,37.162
					c15.023,9.752,37.689,4.48,44.805-12.387c3.426-8.434,3.426-8.434,3.426-8.434s6.325,0,7.38-6.589
					c1.054-6.589-3.426-7.907-7.643-5.535c0,0-7.643-9.752-3.953-26.356c0,0-13.705,9.488-24.511-4.481
					c0,0-8.17,11.069-17.658,1.318C224.669,103.084,224.406,106.51,221.77,107.301z"/>
				<g>
					<path style="fill:#7F150A;" d="M231.975,151.365c0,0,6.371,0.579,12.887-4.054c6.516-4.634,9.412-1.303,10.281,0.579
						c0.869,1.882,0.434,7.819-5.792,10.86c-6.227,3.041-16.507,5.502-19.403-0.29C227.051,152.668,231.975,151.365,231.975,151.365
						z"/>
					<g>
						<defs>
							<path id="SVGID_00000087386236285685571770000012275722848545482122_" d="M231.975,151.365c0,0,6.371,0.579,12.887-4.054
								c6.516-4.634,9.412-1.303,10.281,0.579c0.869,1.882,0.434,7.819-5.792,10.86c-6.227,3.041-16.507,5.502-19.403-0.29
								C227.051,152.668,231.975,151.365,231.975,151.365z"/>
						</defs>
						<clipPath id="SVGID_00000109734370595386606630000003187971070378820255_">
							<use xlink:href="#SVGID_00000087386236285685571770000012275722848545482122_"  style="overflow:visible;"/>
						</clipPath>
						<path style="clip-path:url(#SVGID_00000109734370595386606630000003187971070378820255_);fill:#FFFFFF;" d="M231.975,151.365
							c0,0,0.724,4.054,2.317,5.068c1.593,1.014,14.77-1.737,17.087-5.502c2.317-3.765,1.738-5.647,1.738-5.647
							s-3.483-1.728-6.082,0.434C244.408,147.903,237.054,151.205,231.975,151.365z"/>
						<path style="clip-path:url(#SVGID_00000109734370595386606630000003187971070378820255_);fill:#FF5E6E;" d="M237.582,161.95
							c0,0,5.836-5.636,16.117-6.649C253.699,155.301,249.89,162.095,237.582,161.95z"/>
						<path style="clip-path:url(#SVGID_00000109734370595386606630000003187971070378820255_);fill:#E9E9E9;" d="M245.773,146.626
							c0,0,3.104,3.171,0.198,7.662c0,0,4.076-1.167,5.407-3.358c1.33-2.191,2.012-4.414,1.738-5.647c0,0-3.313-1.035-5.163,0.088
							C246.103,146.494,245.773,146.626,245.773,146.626z"/>
					</g>
				</g>
				<g>
					<path style="fill:#FFC09C;" d="M239.956,170.292c0,0-0.527,6.062-1.845,8.698c0,0,1.581,7.38,7.907,6.062
						c6.325-1.318,7.907-6.325,7.907-6.325l1.581-12.387C255.506,166.339,246.281,170.277,239.956,170.292z"/>
					<path style="fill:#FCA68A;" d="M255.506,166.339c0,0-5.417,3.318-11.582,3.582c0,0,5.541,5.143,10.649,3.778L255.506,166.339z"
						/>
				</g>
				<g>
					<path style="fill:#532100;" d="M219.134,81.472c0,0-8.17-0.263-10.542,9.488c-2.372,9.752,5.56,18.011,13.203,16.694
						c0,0,3.105-1.189,2.874-4.57c0,0,8.157,10.647,17.658-1.318c0,0,8.961,15.023,24.511,4.481c0,0-4.217,13.968,3.953,26.356
						c0,0,6.909-3.269,7.699,2.529c0,0,15.757-7.801,12.068-33.366c-3.69-25.565-17.131-16.077-17.131-16.077
						s-0.264-22.139-25.565-11.86c0,0-5.271-11.069-17.658-6.589C217.817,71.721,219.134,81.472,219.134,81.472z"/>
					<g>
						<path style="fill:#3A1500;" d="M215.023,106.083c0,0,1.951,2.892,3.008,5.469c1.057,2.576,3.369,7.662,3.369,7.662
							s1.387-2.51,0.396-11.559C222.049,107.487,218.951,108.805,215.023,106.083z"/>
						<path style="fill:#3A1500;" d="M281.046,84.403c0,0,8.587,20.741,1.057,26.157c-6.87,6.87-15.985-0.66-15.985-0.66
							s-2.276,14.625,4.675,22.703c0,0,6.676-3.441,7.699,2.529c0,0,11.273-5.813,12.33-22.194
							C291.878,96.557,287.255,85.592,281.046,84.403z"/>
						<path style="fill:#3A1500;" d="M262.815,71.457c0,0,9.908,5.681,7.927,17.967c-0.396,3.171-0.925,4.624-0.925,4.624
							s3.523-4.694,3.611-8.358C273.516,82.025,271.93,73.042,262.815,71.457z"/>
						<path style="fill:#3A1500;" d="M266.839,106.247c0,0,2.185-2.82,2.582-5.33c0,0-3.831,5.945-8.719,8.323
							C260.701,109.239,264.125,108.275,266.839,106.247z"/>
						<path style="fill:#3A1500;" d="M247.862,73.829c0,0,0.949,2.516,0.288,6.611c0,0-1.057-8.719-7.53-13.211
							C240.621,67.229,244.271,66.69,247.862,73.829z"/>
						<path style="fill:#3A1500;" d="M245.035,90.106c0,0,0.507,5.575-2.477,11.462c-1.663,3.157-6.243,5.535-7.652,5.623
							C234.907,107.192,242.217,102.964,245.035,90.106z"/>
					</g>
				</g>
				<g>
					<g>
						<path style="fill:#532100;" d="M247.063,114.859c0,0-1.309,3.881-0.397,6.112c0.912,2.231,3.449-1.128,7.82,0.714
							c4.371,1.841,5.811,1.225,6.581-0.547c0.77-1.772,0.855-3.818-1.486-4.694C257.24,115.568,248.055,112.687,247.063,114.859z"
							/>
						<path style="fill:#532100;" d="M220.515,114.954c0,0-0.485,3.392,0.606,5.088c1.09,1.696,2.665-1.454,6.542-0.606
							c3.877,0.848,4.967,0.121,5.331-1.454c0.363-1.575,0.121-3.271-1.938-3.634C228.995,113.985,220.999,113.016,220.515,114.954z
							"/>
					</g>
					<g>
						<path style="fill:#2B2B2B;" d="M230.816,127.834c0,2.119-1.361,3.837-3.041,3.837c-1.679,0-3.041-1.718-3.041-3.837
							c0-2.119,1.361-3.837,3.041-3.837C229.455,123.997,230.816,125.715,230.816,127.834z"/>
						<path style="fill:#2B2B2B;" d="M255.722,129.138c0,2.119-1.361,3.837-3.041,3.837c-1.679,0-3.041-1.718-3.041-3.837
							s1.361-3.837,3.041-3.837C254.361,125.3,255.722,127.018,255.722,129.138z"/>
					</g>
					<g>
						<g>
							
								<ellipse style="fill:none;stroke:#2B2B2B;stroke-width:1.2536;stroke-linecap:round;stroke-miterlimit:10;" cx="219.812" cy="125.373" rx="13.032" ry="13.684"/>
							
								<ellipse transform="matrix(0.2284 -0.9736 0.9736 0.2284 70.2147 347.74)" style="fill:none;stroke:#2B2B2B;stroke-width:1.2536;stroke-linecap:round;stroke-miterlimit:10;" cx="254.491" cy="129.573" rx="13.684" ry="13.684"/>
							<path style="fill:none;stroke:#2B2B2B;stroke-width:1.2536;stroke-linecap:round;stroke-miterlimit:10;" d="M232.554,124.432
								c0,0,3.475-3.765,8.833,0.289"/>
						</g>
						<path style="fill:#EE967F;" d="M233.68,121.9c0,0,0.775,7.926-4.344,11.439c-5.961,4.09-3.72,12.301-0.301,11.647
							c1.781-0.341,3.318-0.979,5.181-3.791C236.209,138.188,235.128,130.443,233.68,121.9z"/>
					</g>
				</g>
			</g>
			<g>
				<g>
					<path style="fill:#EE967F;" d="M275.56,135.871c-0.603-0.248-1.247-0.33-1.782-0.178c-0.534,0.161-0.927,0.593-1.219,1.104
						c-0.571,1.054-0.818,2.313-1.199,3.563c-0.121-1.296-0.003-2.649,0.64-3.882c0.341-0.589,0.92-1.176,1.673-1.274
						C274.414,135.102,275.094,135.418,275.56,135.871z"/>
				</g>
				<g>
					<path style="fill:#EE967F;" d="M274.546,137.753c-0.635,0.04-1.192-0.024-1.726-0.021c-0.267-0.01-0.518,0.013-0.755,0.066
						c-0.232,0.061-0.468,0.162-0.705,0.389c-0.007-0.318,0.188-0.666,0.495-0.845c0.299-0.194,0.647-0.253,0.967-0.253
						C273.467,137.108,274.075,137.315,274.546,137.753z"/>
				</g>
			</g>
		</g>
	</g>
</g>
<g id="DESIGNED_BY_FREEPIK">
	<g>
		<g>
			<path style="fill:#7F7F7F;" d="M180.308,477.814v-0.161c-0.218,0.249-0.432,0.452-0.644,0.608
				c-0.212,0.157-0.441,0.276-0.689,0.356c-0.247,0.082-0.517,0.122-0.81,0.122c-0.388,0-0.747-0.082-1.078-0.246
				c-0.33-0.164-0.616-0.399-0.857-0.704c-0.242-0.305-0.425-0.662-0.549-1.074c-0.124-0.412-0.187-0.857-0.187-1.335
				c0-1.013,0.247-1.804,0.742-2.369c0.495-0.565,1.146-0.848,1.953-0.848c0.467,0,0.861,0.081,1.181,0.24
				c0.321,0.16,0.633,0.408,0.938,0.739v-2.392c0-0.333,0.066-0.583,0.199-0.754c0.132-0.17,0.321-0.255,0.567-0.255
				c0.245,0,0.434,0.078,0.567,0.234c0.133,0.157,0.199,0.386,0.199,0.691v7.147c0,0.309-0.071,0.54-0.214,0.695
				c-0.143,0.154-0.326,0.231-0.552,0.231c-0.221,0-0.405-0.08-0.549-0.24C180.38,478.339,180.308,478.111,180.308,477.814z
				 M177.12,475.434c0,0.439,0.068,0.813,0.205,1.122c0.137,0.309,0.324,0.541,0.561,0.697c0.238,0.157,0.497,0.236,0.778,0.236
				c0.285,0,0.545-0.074,0.781-0.223c0.235-0.148,0.423-0.376,0.564-0.682c0.141-0.307,0.211-0.691,0.211-1.149
				c0-0.432-0.07-0.803-0.211-1.114c-0.14-0.31-0.33-0.547-0.57-0.712c-0.24-0.164-0.502-0.245-0.786-0.245
				c-0.297,0-0.562,0.084-0.796,0.252c-0.234,0.168-0.415,0.409-0.543,0.724C177.184,474.653,177.12,475.018,177.12,475.434z"/>
			<path style="fill:#7F7F7F;" d="M187.454,475.844h-3.17c0.004,0.367,0.078,0.692,0.223,0.973c0.144,0.281,0.336,0.493,0.576,0.635
				c0.24,0.143,0.504,0.213,0.793,0.213c0.194,0,0.371-0.022,0.531-0.067c0.16-0.046,0.316-0.117,0.466-0.214
				c0.151-0.096,0.289-0.201,0.415-0.312c0.126-0.111,0.29-0.262,0.493-0.452c0.083-0.071,0.202-0.107,0.357-0.107
				c0.166,0,0.3,0.046,0.403,0.137c0.103,0.092,0.155,0.219,0.155,0.386c0,0.146-0.058,0.317-0.172,0.513
				c-0.116,0.196-0.289,0.384-0.52,0.564c-0.232,0.18-0.522,0.329-0.873,0.448c-0.35,0.119-0.753,0.178-1.208,0.178
				c-1.04,0-1.85-0.297-2.428-0.891c-0.578-0.593-0.866-1.399-0.866-2.416c0-0.479,0.071-0.923,0.213-1.332
				c0.143-0.41,0.351-0.761,0.623-1.054c0.273-0.293,0.609-0.517,1.01-0.674c0.399-0.156,0.843-0.234,1.33-0.234
				c0.633,0,1.176,0.133,1.629,0.4c0.454,0.267,0.793,0.612,1.019,1.035c0.225,0.424,0.338,0.856,0.338,1.294
				c0,0.408-0.117,0.672-0.35,0.793C188.206,475.783,187.878,475.844,187.454,475.844z M184.284,474.923h2.939
				c-0.039-0.554-0.189-0.969-0.448-1.244c-0.259-0.275-0.6-0.413-1.024-0.413c-0.404,0-0.735,0.139-0.994,0.418
				C184.497,473.964,184.34,474.377,184.284,474.923z"/>
			<path style="fill:#7F7F7F;" d="M194.838,476.62c0,0.447-0.108,0.831-0.327,1.149c-0.217,0.319-0.539,0.56-0.965,0.724
				c-0.425,0.164-0.943,0.246-1.552,0.246c-0.582,0-1.08-0.089-1.496-0.267c-0.415-0.178-0.722-0.401-0.92-0.667
				c-0.198-0.268-0.297-0.535-0.297-0.805c0-0.178,0.063-0.33,0.19-0.456c0.126-0.126,0.287-0.19,0.481-0.19
				c0.17,0,0.3,0.042,0.391,0.125c0.091,0.083,0.178,0.2,0.261,0.35c0.166,0.29,0.366,0.504,0.597,0.648
				c0.231,0.142,0.547,0.214,0.947,0.214c0.324,0,0.59-0.073,0.798-0.217c0.207-0.145,0.311-0.31,0.311-0.496
				c0-0.285-0.107-0.492-0.324-0.622c-0.216-0.131-0.571-0.256-1.066-0.375c-0.558-0.138-1.012-0.284-1.362-0.436
				c-0.35-0.151-0.63-0.353-0.84-0.602c-0.21-0.25-0.315-0.557-0.315-0.92c0-0.324,0.097-0.631,0.291-0.92
				c0.194-0.288,0.48-0.519,0.859-0.691c0.377-0.173,0.833-0.259,1.367-0.259c0.42,0,0.797,0.043,1.131,0.131
				c0.335,0.086,0.614,0.204,0.837,0.35c0.224,0.146,0.394,0.308,0.51,0.486c0.117,0.178,0.175,0.352,0.175,0.523
				c0,0.185-0.062,0.338-0.187,0.457c-0.124,0.118-0.301,0.178-0.532,0.178c-0.166,0-0.308-0.048-0.424-0.143
				c-0.117-0.095-0.25-0.237-0.401-0.427c-0.123-0.158-0.266-0.285-0.433-0.38c-0.166-0.095-0.392-0.142-0.677-0.142
				c-0.293,0-0.536,0.062-0.73,0.187c-0.194,0.124-0.291,0.279-0.291,0.465c0,0.171,0.071,0.31,0.213,0.419
				c0.143,0.109,0.334,0.2,0.576,0.27c0.242,0.071,0.573,0.158,0.997,0.261c0.502,0.123,0.913,0.27,1.232,0.439
				c0.318,0.17,0.56,0.371,0.725,0.603C194.756,476.06,194.838,476.324,194.838,476.62z"/>
			<path style="fill:#7F7F7F;" d="M196.494,471.397c-0.225,0-0.418-0.07-0.579-0.208c-0.16-0.138-0.24-0.334-0.24-0.588
				c0-0.23,0.082-0.418,0.246-0.567c0.164-0.149,0.355-0.223,0.573-0.223c0.21,0,0.396,0.067,0.558,0.202
				c0.162,0.135,0.244,0.33,0.244,0.588c0,0.25-0.08,0.444-0.238,0.585C196.899,471.327,196.711,471.397,196.494,471.397z
				 M197.295,473.071v4.683c0,0.325-0.077,0.571-0.232,0.737c-0.155,0.166-0.35,0.249-0.588,0.249c-0.238,0-0.431-0.085-0.579-0.255
				c-0.149-0.17-0.222-0.414-0.222-0.73v-4.636c0-0.32,0.074-0.562,0.222-0.724c0.148-0.162,0.341-0.243,0.579-0.243
				c0.238,0,0.433,0.081,0.588,0.243C197.218,472.556,197.295,472.782,197.295,473.071z"/>
			<path style="fill:#7F7F7F;" d="M204.395,473.338v4.707c0,0.538-0.058,1.001-0.173,1.39c-0.114,0.387-0.298,0.708-0.552,0.961
				c-0.253,0.253-0.585,0.441-0.994,0.563c-0.41,0.123-0.919,0.184-1.529,0.184c-0.558,0-1.057-0.078-1.496-0.234
				c-0.439-0.157-0.777-0.358-1.015-0.605c-0.237-0.247-0.357-0.502-0.357-0.763c0-0.198,0.068-0.359,0.202-0.483
				c0.134-0.125,0.297-0.187,0.486-0.187c0.237,0,0.445,0.105,0.623,0.314c0.087,0.107,0.177,0.215,0.27,0.324
				c0.093,0.109,0.197,0.202,0.309,0.28c0.113,0.076,0.249,0.134,0.407,0.172c0.158,0.037,0.341,0.056,0.546,0.056
				c0.42,0,0.745-0.058,0.977-0.175c0.232-0.117,0.394-0.28,0.487-0.49c0.093-0.209,0.147-0.433,0.163-0.673
				s0.027-0.624,0.035-1.155c-0.25,0.349-0.537,0.615-0.864,0.796c-0.326,0.182-0.715,0.273-1.166,0.273
				c-0.542,0-1.016-0.139-1.422-0.416c-0.405-0.277-0.717-0.665-0.935-1.163c-0.218-0.499-0.326-1.074-0.326-1.727
				c0-0.487,0.066-0.927,0.198-1.318c0.133-0.392,0.322-0.723,0.567-0.992c0.245-0.269,0.528-0.472,0.849-0.608
				c0.32-0.136,0.673-0.204,1.057-0.204c0.459,0,0.857,0.089,1.193,0.264c0.336,0.177,0.649,0.453,0.938,0.829v-0.22
				c0-0.281,0.069-0.498,0.208-0.653c0.139-0.154,0.317-0.231,0.535-0.231c0.313,0,0.52,0.103,0.623,0.306
				C204.343,472.66,204.395,472.954,204.395,473.338z M199.699,475.392c0,0.657,0.143,1.154,0.43,1.49
				c0.287,0.337,0.658,0.505,1.113,0.505c0.269,0,0.523-0.073,0.762-0.217c0.24-0.145,0.435-0.363,0.585-0.653
				c0.15-0.291,0.225-0.644,0.225-1.06c0-0.66-0.145-1.176-0.436-1.543c-0.291-0.368-0.674-0.552-1.149-0.552
				c-0.463,0-0.834,0.176-1.113,0.529C199.838,474.242,199.699,474.743,199.699,475.392z"/>
			<path style="fill:#7F7F7F;" d="M206.97,473.047v0.196c0.285-0.376,0.596-0.652,0.935-0.828c0.338-0.176,0.727-0.264,1.166-0.264
				c0.428,0,0.809,0.093,1.146,0.28c0.336,0.186,0.588,0.449,0.753,0.789c0.108,0.198,0.176,0.413,0.208,0.642
				c0.032,0.23,0.048,0.522,0.048,0.879v3.015c0,0.325-0.074,0.571-0.223,0.737c-0.148,0.166-0.341,0.249-0.579,0.249
				c-0.242,0-0.437-0.085-0.588-0.255c-0.151-0.17-0.226-0.414-0.226-0.73v-2.701c0-0.534-0.074-0.943-0.223-1.226
				c-0.149-0.283-0.444-0.425-0.888-0.425c-0.288,0-0.552,0.086-0.789,0.258c-0.237,0.173-0.412,0.41-0.522,0.71
				c-0.079,0.242-0.119,0.692-0.119,1.353v2.03c0,0.328-0.077,0.576-0.228,0.74c-0.152,0.164-0.349,0.246-0.59,0.246
				c-0.234,0-0.425-0.085-0.576-0.255c-0.15-0.17-0.225-0.414-0.225-0.73v-4.683c0-0.309,0.067-0.54,0.202-0.692
				c0.135-0.152,0.319-0.228,0.552-0.228c0.143,0,0.272,0.034,0.387,0.101c0.114,0.068,0.207,0.169,0.276,0.302
				C206.935,472.689,206.97,472.854,206.97,473.047z"/>
			<path style="fill:#7F7F7F;" d="M216.829,475.844h-3.17c0.004,0.367,0.078,0.692,0.223,0.973c0.144,0.281,0.336,0.493,0.576,0.635
				c0.239,0.143,0.503,0.213,0.792,0.213c0.194,0,0.371-0.022,0.532-0.067c0.16-0.046,0.315-0.117,0.466-0.214
				c0.15-0.096,0.288-0.201,0.416-0.312c0.126-0.111,0.29-0.262,0.492-0.452c0.083-0.071,0.202-0.107,0.356-0.107
				c0.166,0,0.301,0.046,0.404,0.137c0.103,0.092,0.154,0.219,0.154,0.386c0,0.146-0.057,0.317-0.172,0.513
				c-0.115,0.196-0.288,0.384-0.52,0.564c-0.232,0.18-0.522,0.329-0.872,0.448c-0.35,0.119-0.753,0.178-1.208,0.178
				c-1.041,0-1.85-0.297-2.428-0.891c-0.577-0.593-0.866-1.399-0.866-2.416c0-0.479,0.071-0.923,0.214-1.332
				c0.143-0.41,0.351-0.761,0.624-1.054c0.273-0.293,0.609-0.517,1.009-0.674c0.399-0.156,0.843-0.234,1.33-0.234
				c0.633,0,1.175,0.133,1.629,0.4c0.454,0.267,0.793,0.612,1.019,1.035c0.225,0.424,0.338,0.856,0.338,1.294
				c0,0.408-0.117,0.672-0.35,0.793C217.581,475.783,217.253,475.844,216.829,475.844z M213.659,474.923h2.938
				c-0.039-0.554-0.189-0.969-0.448-1.244c-0.259-0.275-0.601-0.413-1.024-0.413c-0.404,0-0.736,0.139-0.995,0.418
				C213.871,473.964,213.715,474.377,213.659,474.923z"/>
			<path style="fill:#7F7F7F;" d="M223.435,477.814v-0.161c-0.218,0.249-0.432,0.452-0.644,0.608
				c-0.212,0.157-0.441,0.276-0.689,0.356c-0.247,0.082-0.517,0.122-0.81,0.122c-0.389,0-0.747-0.082-1.078-0.246
				c-0.331-0.164-0.616-0.399-0.858-0.704c-0.242-0.305-0.424-0.662-0.549-1.074c-0.125-0.412-0.187-0.857-0.187-1.335
				c0-1.013,0.247-1.804,0.742-2.369c0.495-0.565,1.146-0.848,1.953-0.848c0.467,0,0.861,0.081,1.181,0.24
				c0.321,0.16,0.633,0.408,0.938,0.739v-2.392c0-0.333,0.066-0.583,0.199-0.754c0.132-0.17,0.322-0.255,0.567-0.255
				c0.245,0,0.434,0.078,0.567,0.234c0.132,0.157,0.199,0.386,0.199,0.691v7.147c0,0.309-0.071,0.54-0.214,0.695
				c-0.143,0.154-0.326,0.231-0.552,0.231c-0.222,0-0.405-0.08-0.549-0.24C223.507,478.339,223.435,478.111,223.435,477.814z
				 M220.248,475.434c0,0.439,0.068,0.813,0.205,1.122c0.136,0.309,0.323,0.541,0.561,0.697c0.237,0.157,0.496,0.236,0.777,0.236
				c0.285,0,0.546-0.074,0.781-0.223c0.236-0.148,0.424-0.376,0.564-0.682c0.141-0.307,0.211-0.691,0.211-1.149
				c0-0.432-0.07-0.803-0.211-1.114c-0.14-0.31-0.33-0.547-0.57-0.712c-0.24-0.164-0.502-0.245-0.787-0.245
				c-0.296,0-0.562,0.084-0.795,0.252c-0.233,0.168-0.414,0.409-0.543,0.724C220.312,474.653,220.248,475.018,220.248,475.434z"/>
			<path style="fill:#7F7F7F;" d="M230.059,470.667v2.475c0.304-0.316,0.615-0.559,0.932-0.727c0.316-0.168,0.709-0.252,1.175-0.252
				c0.538,0,1.01,0.128,1.416,0.382c0.405,0.256,0.72,0.626,0.944,1.111c0.223,0.484,0.336,1.06,0.336,1.725
				c0,0.491-0.063,0.94-0.187,1.35c-0.125,0.409-0.306,0.765-0.543,1.065c-0.238,0.301-0.525,0.534-0.864,0.698
				c-0.339,0.164-0.712,0.246-1.119,0.246c-0.25,0-0.484-0.029-0.703-0.089c-0.22-0.059-0.407-0.137-0.561-0.234
				c-0.154-0.096-0.286-0.197-0.395-0.3c-0.109-0.102-0.253-0.258-0.431-0.463v0.161c0,0.305-0.073,0.535-0.22,0.692
				c-0.146,0.156-0.332,0.234-0.558,0.234c-0.229,0-0.413-0.077-0.549-0.234c-0.137-0.157-0.205-0.388-0.205-0.692v-7.076
				c0-0.328,0.066-0.577,0.198-0.745c0.133-0.168,0.318-0.252,0.555-0.252c0.25,0,0.441,0.08,0.576,0.24
				C229.992,470.142,230.059,470.37,230.059,470.667z M230.136,475.481c0,0.645,0.148,1.14,0.442,1.486
				c0.295,0.347,0.682,0.521,1.161,0.521c0.407,0,0.759-0.177,1.053-0.532c0.295-0.355,0.442-0.862,0.442-1.523
				c0-0.427-0.061-0.796-0.184-1.104c-0.123-0.309-0.297-0.547-0.522-0.715c-0.226-0.168-0.489-0.252-0.79-0.252
				c-0.309,0-0.584,0.084-0.825,0.252c-0.242,0.168-0.431,0.411-0.57,0.73C230.205,474.662,230.136,475.042,230.136,475.481z"/>
			<path style="fill:#7F7F7F;" d="M236.963,478.942l0.148-0.363l-1.995-5.022c-0.122-0.288-0.184-0.499-0.184-0.629
				c0-0.139,0.036-0.267,0.107-0.385c0.071-0.119,0.169-0.214,0.293-0.285c0.125-0.072,0.255-0.107,0.389-0.107
				c0.233,0,0.409,0.074,0.529,0.223c0.119,0.148,0.223,0.361,0.314,0.638l1.371,3.989l1.3-3.71c0.103-0.3,0.196-0.536,0.279-0.706
				c0.083-0.17,0.171-0.285,0.264-0.344c0.093-0.06,0.225-0.09,0.395-0.09c0.123,0,0.24,0.032,0.353,0.098
				c0.113,0.065,0.2,0.153,0.261,0.264c0.061,0.111,0.092,0.227,0.092,0.35c-0.017,0.075-0.042,0.182-0.077,0.321
				c-0.036,0.138-0.079,0.28-0.13,0.421l-2.113,5.533c-0.182,0.486-0.361,0.868-0.535,1.145c-0.174,0.277-0.404,0.491-0.691,0.638
				c-0.287,0.149-0.674,0.223-1.161,0.223c-0.475,0-0.831-0.051-1.068-0.154c-0.238-0.104-0.356-0.292-0.356-0.564
				c0-0.186,0.056-0.33,0.169-0.43c0.112-0.101,0.28-0.152,0.501-0.152c0.087,0,0.173,0.012,0.256,0.037
				c0.103,0.023,0.192,0.035,0.267,0.035c0.186,0,0.333-0.027,0.44-0.084c0.106-0.055,0.202-0.151,0.288-0.288
				C236.754,479.408,236.852,479.207,236.963,478.942z"/>
		</g>
		<g>
			<path style="fill:#7F7F7F;" d="M260.439,472.291h0.386v-0.486c0-0.509,0.062-0.911,0.192-1.211
				c0.128-0.299,0.347-0.516,0.654-0.653c0.306-0.135,0.727-0.204,1.26-0.204c0.95,0,1.42,0.229,1.42,0.697
				c0,0.149-0.049,0.278-0.15,0.384c-0.096,0.106-0.214,0.16-0.349,0.16c-0.062,0-0.174-0.012-0.33-0.037
				c-0.148-0.021-0.283-0.035-0.389-0.035c-0.292,0-0.479,0.088-0.566,0.259c-0.079,0.172-0.122,0.418-0.122,0.74v0.386h0.395
				c0.62,0,0.926,0.186,0.926,0.56c0,0.262-0.079,0.431-0.245,0.503c-0.164,0.071-0.39,0.107-0.681,0.107h-0.395v4.294
				c0,0.319-0.075,0.563-0.231,0.73c-0.151,0.17-0.346,0.254-0.589,0.254c-0.23,0-0.419-0.084-0.574-0.254
				c-0.153-0.167-0.228-0.411-0.228-0.73v-4.294h-0.446c-0.243,0-0.426-0.052-0.558-0.164c-0.131-0.107-0.197-0.25-0.197-0.424
				C259.624,472.483,259.896,472.291,260.439,472.291"/>
			<path style="fill:#7F7F7F;" d="M265.745,476.4v1.355c0,0.327-0.083,0.574-0.234,0.737c-0.154,0.166-0.349,0.247-0.586,0.247
				c-0.239,0-0.43-0.082-0.579-0.25c-0.148-0.165-0.225-0.41-0.225-0.734v-4.514c0-0.729,0.262-1.093,0.788-1.093
				c0.271,0,0.464,0.084,0.583,0.255c0.119,0.171,0.184,0.421,0.198,0.755c0.192-0.334,0.39-0.584,0.593-0.755
				c0.208-0.171,0.477-0.255,0.819-0.255c0.343,0,0.67,0.084,0.991,0.255c0.322,0.171,0.482,0.398,0.482,0.678
				c0,0.197-0.069,0.362-0.204,0.488c-0.138,0.131-0.284,0.195-0.441,0.195c-0.062,0-0.207-0.039-0.433-0.112
				c-0.228-0.071-0.43-0.108-0.602-0.108c-0.237,0-0.433,0.064-0.582,0.186c-0.151,0.128-0.269,0.311-0.353,0.554
				c-0.081,0.247-0.137,0.541-0.17,0.878C265.759,475.5,265.745,475.913,265.745,476.4"/>
			<path style="fill:#7F7F7F;" d="M273.196,475.842h-3.171c0.005,0.367,0.078,0.694,0.222,0.974
				c0.147,0.279,0.337,0.491,0.578,0.635c0.24,0.142,0.502,0.212,0.793,0.212c0.194,0,0.37-0.021,0.531-0.07
				c0.159-0.043,0.316-0.116,0.466-0.213c0.151-0.095,0.288-0.199,0.415-0.313c0.126-0.109,0.292-0.26,0.494-0.449
				c0.084-0.071,0.203-0.109,0.355-0.109c0.168,0,0.301,0.046,0.406,0.139c0.104,0.092,0.152,0.219,0.152,0.386
				c0,0.147-0.056,0.317-0.167,0.512c-0.117,0.198-0.289,0.385-0.522,0.566c-0.234,0.178-0.524,0.329-0.873,0.446
				c-0.35,0.119-0.754,0.179-1.207,0.179c-1.044,0-1.853-0.296-2.429-0.889c-0.577-0.595-0.87-1.401-0.87-2.418
				c0-0.479,0.073-0.924,0.217-1.334c0.14-0.411,0.349-0.76,0.624-1.055c0.272-0.294,0.606-0.518,1.008-0.674
				c0.399-0.156,0.842-0.234,1.33-0.234c0.632,0,1.176,0.134,1.629,0.404c0.452,0.264,0.796,0.61,1.018,1.034
				c0.226,0.426,0.339,0.855,0.339,1.296c0,0.405-0.118,0.669-0.351,0.791C273.947,475.782,273.619,475.842,273.196,475.842
				 M270.024,474.92h2.938c-0.039-0.553-0.186-0.969-0.446-1.242c-0.261-0.276-0.599-0.413-1.025-0.413
				c-0.403,0-0.736,0.137-0.995,0.418C270.237,473.963,270.079,474.375,270.024,474.92"/>
			<path style="fill:#7F7F7F;" d="M279.938,475.842h-3.171c0.004,0.367,0.078,0.694,0.221,0.974
				c0.145,0.279,0.337,0.491,0.576,0.635c0.239,0.142,0.504,0.212,0.795,0.212c0.192,0,0.371-0.021,0.528-0.07
				c0.162-0.043,0.316-0.116,0.469-0.213c0.151-0.095,0.287-0.199,0.415-0.313c0.125-0.109,0.29-0.26,0.493-0.449
				c0.084-0.071,0.204-0.109,0.355-0.109c0.168,0,0.302,0.046,0.406,0.139c0.103,0.092,0.15,0.219,0.15,0.386
				c0,0.147-0.054,0.317-0.171,0.512c-0.111,0.198-0.285,0.385-0.519,0.566c-0.231,0.178-0.525,0.329-0.872,0.446
				c-0.349,0.119-0.755,0.179-1.209,0.179c-1.042,0-1.849-0.296-2.429-0.889c-0.577-0.595-0.868-1.401-0.868-2.418
				c0-0.479,0.073-0.924,0.217-1.334c0.142-0.411,0.349-0.76,0.623-1.055c0.272-0.294,0.608-0.518,1.009-0.674
				c0.398-0.156,0.844-0.234,1.331-0.234c0.63,0,1.174,0.134,1.633,0.404c0.45,0.264,0.791,0.61,1.013,1.034
				c0.225,0.426,0.341,0.855,0.341,1.296c0,0.405-0.12,0.669-0.351,0.791C280.688,475.782,280.36,475.842,279.938,475.842
				 M276.767,474.92h2.938c-0.04-0.553-0.19-0.969-0.447-1.242c-0.263-0.276-0.601-0.413-1.027-0.413
				c-0.403,0-0.735,0.137-0.995,0.418C276.978,473.963,276.819,474.375,276.767,474.92"/>
			<path style="fill:#7F7F7F;" d="M283.487,473.059v0.194c0.304-0.375,0.621-0.651,0.953-0.828c0.324-0.178,0.699-0.267,1.114-0.267
				c0.497,0,0.959,0.13,1.379,0.386c0.419,0.259,0.749,0.635,0.993,1.129c0.244,0.497,0.366,1.081,0.366,1.758
				c0,0.497-0.07,0.957-0.21,1.376c-0.14,0.418-0.336,0.767-0.581,1.05c-0.246,0.281-0.535,0.501-0.868,0.654
				c-0.339,0.151-0.695,0.227-1.08,0.227c-0.461,0-0.853-0.093-1.166-0.28c-0.314-0.182-0.614-0.458-0.901-0.816v2.433
				c0,0.71-0.26,1.069-0.777,1.069c-0.306,0-0.505-0.092-0.607-0.275c-0.095-0.187-0.146-0.452-0.146-0.807v-6.996
				c0-0.309,0.066-0.537,0.2-0.692c0.134-0.15,0.32-0.228,0.553-0.228c0.231,0,0.416,0.078,0.56,0.234
				C283.417,472.54,283.487,472.763,283.487,473.059 M286.665,475.414c0-0.428-0.067-0.796-0.197-1.102
				c-0.131-0.308-0.312-0.542-0.541-0.705c-0.23-0.164-0.489-0.248-0.77-0.248c-0.446,0-0.824,0.178-1.13,0.527
				c-0.308,0.354-0.462,0.872-0.462,1.558c0,0.641,0.153,1.146,0.46,1.504c0.305,0.358,0.679,0.536,1.133,0.536
				c0.268,0,0.519-0.079,0.748-0.233c0.232-0.158,0.416-0.392,0.552-0.704C286.595,476.235,286.665,475.857,286.665,475.414"/>
			<path style="fill:#7F7F7F;" d="M289.925,471.393c-0.226,0-0.418-0.071-0.577-0.209c-0.162-0.139-0.242-0.333-0.242-0.585
				c0-0.23,0.082-0.419,0.248-0.569c0.164-0.147,0.354-0.222,0.571-0.222c0.212,0,0.397,0.067,0.559,0.2
				c0.162,0.137,0.244,0.334,0.244,0.591c0,0.25-0.079,0.444-0.236,0.585C290.332,471.322,290.145,471.393,289.925,471.393
				 M290.727,473.067v4.689c0,0.322-0.077,0.568-0.231,0.732c-0.156,0.168-0.35,0.25-0.588,0.25c-0.238,0-0.428-0.084-0.58-0.254
				c-0.146-0.173-0.222-0.416-0.222-0.729v-4.642c0-0.319,0.076-0.559,0.222-0.721c0.152-0.165,0.342-0.245,0.58-0.245
				c0.238,0,0.432,0.079,0.588,0.245C290.65,472.555,290.727,472.781,290.727,473.067"/>
			<path style="fill:#7F7F7F;" d="M295.952,477.999l-1.428-2.354l-0.88,0.83v1.291c0,0.312-0.083,0.551-0.248,0.718
				c-0.16,0.17-0.354,0.254-0.566,0.254c-0.249,0-0.447-0.082-0.588-0.25c-0.142-0.165-0.215-0.41-0.215-0.734v-6.915
				c0-0.358,0.072-0.632,0.207-0.821c0.139-0.19,0.341-0.283,0.596-0.283c0.25,0,0.446,0.086,0.593,0.257
				c0.146,0.169,0.221,0.421,0.221,0.751v3.933l1.823-1.914c0.227-0.235,0.396-0.4,0.517-0.486c0.118-0.087,0.262-0.13,0.431-0.13
				c0.204,0,0.371,0.065,0.51,0.193c0.132,0.129,0.2,0.291,0.2,0.483c0,0.237-0.221,0.556-0.659,0.951l-0.861,0.789l1.662,2.614
				c0.121,0.196,0.212,0.34,0.265,0.441c0.053,0.1,0.081,0.2,0.081,0.289c0,0.258-0.071,0.459-0.213,0.61
				c-0.14,0.148-0.327,0.221-0.554,0.221c-0.198,0-0.352-0.051-0.458-0.16C296.282,478.471,296.133,478.277,295.952,477.999"/>
			<path style="fill:#7F7F7F;" d="M299.474,478.739c-0.245,0-0.455-0.079-0.634-0.238c-0.178-0.156-0.268-0.378-0.268-0.665
				c0-0.241,0.086-0.449,0.256-0.622c0.172-0.174,0.38-0.262,0.63-0.262c0.248,0,0.46,0.087,0.639,0.258
				c0.174,0.172,0.264,0.383,0.264,0.626c0,0.283-0.089,0.505-0.264,0.662C299.919,478.66,299.711,478.739,299.474,478.739"/>
			<path style="fill:#7F7F7F;" d="M307.536,476.733c0,0.2-0.061,0.417-0.182,0.646c-0.12,0.231-0.305,0.449-0.553,0.656
				c-0.247,0.207-0.557,0.377-0.935,0.502c-0.375,0.126-0.8,0.192-1.269,0.192c-1.004,0-1.787-0.294-2.349-0.876
				c-0.56-0.585-0.841-1.368-0.841-2.35c0-0.667,0.128-1.254,0.387-1.765c0.255-0.509,0.628-0.905,1.113-1.184
				c0.487-0.28,1.072-0.419,1.746-0.419c0.421,0,0.805,0.061,1.158,0.184c0.35,0.122,0.645,0.282,0.89,0.474
				c0.242,0.197,0.429,0.402,0.556,0.62c0.129,0.22,0.192,0.425,0.192,0.617c0,0.192-0.071,0.357-0.214,0.492
				c-0.147,0.134-0.322,0.203-0.524,0.203c-0.137,0-0.249-0.035-0.338-0.104c-0.09-0.07-0.19-0.181-0.299-0.339
				c-0.198-0.299-0.404-0.526-0.623-0.674c-0.214-0.152-0.488-0.226-0.821-0.226c-0.476,0-0.865,0.186-1.159,0.561
				c-0.292,0.372-0.439,0.888-0.439,1.534c0,0.305,0.039,0.587,0.114,0.842c0.073,0.255,0.182,0.472,0.325,0.653
				c0.144,0.179,0.315,0.315,0.516,0.409c0.203,0.096,0.425,0.141,0.665,0.141c0.326,0,0.604-0.075,0.836-0.225
				c0.235-0.151,0.439-0.38,0.616-0.689c0.099-0.182,0.204-0.324,0.318-0.427c0.114-0.102,0.256-0.156,0.422-0.156
				c0.198,0,0.363,0.077,0.491,0.227C307.469,476.402,307.536,476.563,307.536,476.733"/>
			<path style="fill:#7F7F7F;" d="M314.53,475.445c0,0.481-0.076,0.928-0.222,1.337c-0.155,0.408-0.37,0.758-0.656,1.049
				c-0.285,0.293-0.626,0.518-1.02,0.675c-0.4,0.154-0.844,0.234-1.337,0.234c-0.491,0-0.933-0.08-1.326-0.239
				c-0.389-0.156-0.732-0.384-1.016-0.676c-0.288-0.298-0.505-0.646-0.657-1.048c-0.143-0.402-0.219-0.846-0.219-1.332
				c0-0.491,0.078-0.941,0.224-1.349c0.151-0.409,0.368-0.758,0.649-1.046c0.282-0.289,0.621-0.511,1.019-0.669
				c0.402-0.156,0.844-0.234,1.326-0.234c0.49,0,0.936,0.078,1.337,0.239c0.398,0.157,0.739,0.384,1.027,0.674
				c0.286,0.297,0.502,0.643,0.65,1.045C314.455,474.513,314.53,474.956,314.53,475.445 M312.903,475.445
				c0-0.662-0.146-1.176-0.436-1.543c-0.289-0.372-0.681-0.555-1.171-0.555c-0.317,0-0.597,0.082-0.839,0.246
				c-0.242,0.164-0.425,0.406-0.556,0.728c-0.131,0.321-0.197,0.696-0.197,1.124c0,0.424,0.064,0.792,0.193,1.108
				c0.13,0.319,0.314,0.561,0.554,0.729c0.241,0.167,0.522,0.253,0.845,0.253c0.49,0,0.882-0.185,1.171-0.557
				C312.756,476.608,312.903,476.095,312.903,475.445"/>
			<path style="fill:#7F7F7F;" d="M320.712,475.564v2.154c0,0.342-0.075,0.595-0.231,0.767c-0.156,0.17-0.357,0.255-0.611,0.255
				c-0.245,0-0.446-0.085-0.594-0.255c-0.154-0.173-0.233-0.425-0.233-0.767v-2.582c0-0.408-0.013-0.726-0.04-0.953
				c-0.029-0.221-0.105-0.41-0.226-0.552c-0.123-0.147-0.318-0.22-0.582-0.22c-0.532,0-0.879,0.181-1.048,0.551
				c-0.167,0.36-0.254,0.883-0.254,1.567v2.189c0,0.336-0.076,0.592-0.226,0.765c-0.156,0.171-0.355,0.258-0.603,0.258
				c-0.247,0-0.448-0.087-0.604-0.258c-0.157-0.173-0.235-0.428-0.235-0.765v-4.637c0-0.306,0.07-0.538,0.209-0.695
				c0.143-0.16,0.329-0.239,0.556-0.239c0.223,0,0.407,0.077,0.557,0.222c0.148,0.149,0.222,0.354,0.222,0.615v0.153
				c0.283-0.334,0.584-0.582,0.903-0.738c0.323-0.162,0.676-0.241,1.07-0.241c0.407,0,0.757,0.082,1.049,0.244
				c0.294,0.163,0.533,0.409,0.725,0.735c0.275-0.33,0.568-0.577,0.881-0.738c0.313-0.161,0.658-0.241,1.039-0.241
				c0.441,0,0.826,0.089,1.146,0.262c0.319,0.174,0.558,0.425,0.717,0.747c0.138,0.295,0.206,0.756,0.206,1.385v3.164
				c0,0.342-0.076,0.595-0.23,0.767c-0.154,0.17-0.359,0.255-0.612,0.255c-0.247,0-0.446-0.087-0.603-0.258
				c-0.156-0.173-0.235-0.428-0.235-0.765v-2.726c0-0.349-0.015-0.627-0.043-0.836c-0.029-0.211-0.11-0.388-0.239-0.529
				c-0.133-0.142-0.331-0.215-0.596-0.215c-0.214,0-0.416,0.066-0.609,0.192c-0.192,0.124-0.342,0.298-0.45,0.508
				C320.774,474.386,320.712,474.87,320.712,475.564"/>
		</g>
		<g>
			<path style="fill:#7F7F7F;" d="M245.272,475.052c-0.001-0.003-0.001-0.006-0.001-0.011
				C245.271,475.046,245.271,475.049,245.272,475.052z"/>
			<path style="fill:#7F7F7F;" d="M245.354,475.57c0.001,0,0.001,0,0.001,0c-0.031-0.148-0.055-0.294-0.074-0.439
				C245.3,475.277,245.324,475.424,245.354,475.57z"/>
			<path style="fill:#7F7F7F;" d="M245.89,477.074c-0.004-0.006-0.007-0.013-0.011-0.021
				C245.883,477.061,245.886,477.068,245.89,477.074z"/>
			<path style="fill:#7F7F7F;" d="M245.839,476.974c-0.014-0.027-0.027-0.056-0.041-0.084
				C245.811,476.92,245.825,476.947,245.839,476.974z"/>
			<path style="fill:#7F7F7F;" d="M245.504,476.15c0.079,0.25,0.175,0.493,0.286,0.724c-0.113-0.236-0.206-0.479-0.284-0.724
				C245.506,476.15,245.505,476.15,245.504,476.15z"/>
			<path style="fill:#7F7F7F;" d="M251.545,468.842c0.313,0,0.544,0.025,0.809,0.07l0.075-0.477c0,0-0.732-0.225-1.694-0.147
				l-0.076-0.259c0.299-0.063,0.524-0.329,0.524-0.646c0-0.364-0.296-0.659-0.661-0.659c-0.364,0-0.66,0.295-0.66,0.659
				c0,0.317,0.224,0.583,0.522,0.646l0.084,0.289c-1.021,0.14-1.834,0.539-1.834,0.539l0.144,0.441
				c0.618-0.206,1.154-0.331,1.64-0.383C250.895,468.864,251.253,468.842,251.545,468.842z"/>
			<path style="fill:#7F7F7F;" d="M245.878,471.253l0.004-0.005c0.024-0.031,0.047-0.06,0.071-0.089l-0.196-0.141l-0.305-0.223
				c-0.017,0.024-0.497,0.465-0.876,1.28c-0.016-0.026-0.035-0.051-0.056-0.074c-0.114-0.124-0.272-0.187-0.474-0.184
				c-0.003,0-0.006,0-0.009,0c-0.125,0-0.21-0.042-0.267-0.092c0.056-0.071,0.089-0.16,0.089-0.258c0-0.23-0.187-0.418-0.418-0.418
				c-0.23,0-0.418,0.188-0.418,0.418c0,0.231,0.187,0.418,0.418,0.418c0.036,0,0.071-0.006,0.104-0.013
				c0.103,0.114,0.266,0.214,0.505,0.209c0.123-0.001,0.213,0.031,0.273,0.097c0.069,0.076,0.093,0.185,0.1,0.267
				c-0.001,0.001-0.001,0.003-0.002,0.003c-0.272,0.743-0.194,1.669-0.194,1.669l0.661,0.026c0.013-0.337,0.062-0.927,0.232-1.394
				C245.449,471.844,245.861,471.277,245.878,471.253z"/>
			<path style="fill:#7F7F7F;" d="M257.295,469.394c-0.23,0-0.418,0.187-0.418,0.418c0,0.036,0.006,0.07,0.015,0.103
				c-0.115,0.104-0.214,0.267-0.211,0.507c0.002,0.123-0.03,0.212-0.096,0.273c-0.053,0.047-0.12,0.072-0.185,0.088
				c-0.492-0.689-1.097-1.11-1.097-1.11l-0.474,0.508c0.358,0.326,0.725,0.734,1.08,1.244c0.246,0.352,0.499,0.806,0.71,1.259
				l0.64-0.304c0,0-0.292-0.722-0.704-1.37c0.072-0.025,0.144-0.064,0.207-0.12c0.125-0.113,0.187-0.273,0.183-0.474
				c-0.001-0.13,0.042-0.218,0.093-0.276c0.071,0.054,0.16,0.089,0.258,0.089c0.232,0,0.419-0.187,0.419-0.418
				C257.714,469.581,257.527,469.394,257.295,469.394z"/>
			<path style="fill:#7F7F7F;" d="M255.634,475.146c-0.881,0.429-2.33,0.996-4.238,1.262c-0.749,0.104-1.475,0.142-2.143,0.142
				c-0.869,0-1.637-0.065-2.227-0.139c-0.673-0.085-1.198-0.189-1.52-0.261c0.077,0.245,0.171,0.488,0.284,0.724
				c0.002,0.006,0.005,0.013,0.008,0.017c0.013,0.027,0.027,0.056,0.041,0.084c0.013,0.027,0.027,0.054,0.041,0.079
				c0.004,0.007,0.007,0.015,0.011,0.021c0.189,0.356,0.416,0.684,0.675,0.968c0.9,0.984,1.817,1.14,1.826,1.141l0.014,0.002
				l0.013,0.005c0.008,0.003,0.821,0.266,2.057,0.266c1.216,0,2.409-0.245,3.546-0.729c0.842-0.431,1.639-1.085,2.034-1.669
				c0.305-0.452,0.526-0.933,0.656-1.434c0.069-0.266,0.124-0.692,0.092-1.141C256.556,474.65,256.164,474.887,255.634,475.146z"/>
			<path style="fill:#7F7F7F;" d="M246.161,471.462c-0.026,0.037-0.408,0.578-0.71,1.408c-0.226,0.622-0.216,1.527-0.216,1.538
				v0.002c0,0.212,0.012,0.423,0.035,0.632c0,0.005,0,0.008,0.001,0.011c0.002,0.027,0.007,0.053,0.009,0.079
				c0.019,0.145,0.043,0.291,0.074,0.439c0.438,0.111,3.049,0.72,5.968,0.314c1.829-0.254,3.218-0.795,4.062-1.204
				c0.701-0.34,1.151-0.648,1.325-0.774c-0.173-0.643-0.651-1.65-1.089-2.279c-1.253-1.791-2.604-2.25-3.298-2.365
				c-0.265-0.043-0.477-0.068-0.777-0.068c-0.28,0-0.626,0.023-1.089,0.071c-0.464,0.048-0.982,0.17-1.583,0.372
				c-0.842,0.282-1.605,0.725-2.204,1.28l-0.021,0.019C246.56,471.018,246.374,471.19,246.161,471.462z M253.829,471.045
				c0.601,0,1.09,0.488,1.09,1.09c0,0.601-0.489,1.09-1.09,1.09c-0.601,0-1.089-0.489-1.089-1.09
				C252.74,471.534,253.228,471.045,253.829,471.045z M248.678,471.002c0.973,0,1.76,0.789,1.76,1.761
				c0,0.972-0.787,1.759-1.76,1.759c-0.972,0-1.76-0.787-1.76-1.759C246.918,471.79,247.707,471.002,248.678,471.002z"/>
		</g>
	</g>
</g>
</svg>
