<?xml version="1.0" encoding="UTF-8"?>
<svg xmlns="http://www.w3.org/2000/svg" xmlns:xlink="http://www.w3.org/1999/xlink" viewBox="0 0 500 500">
  <defs>
    <linearGradient id="Degradado_sin_nombre_2" data-name="Degradado sin nombre 2" x1="245.26" y1="448.33" x2="245.26" y2="216.49" gradientUnits="userSpaceOnUse">
      <stop offset="0" stop-color="#fff"/>
      <stop offset="1" stop-color="#7f7f7f"/>
    </linearGradient>
    <linearGradient id="Degradado_sin_nombre_2-2" data-name="Degradado sin nombre 2" x1="420.11" y1="448.33" x2="420.11" y2="216.49" gradientTransform="translate(37.33 -94.23) rotate(13.39)" xlink:href="#Degradado_sin_nombre_2"/>
    <linearGradient id="Degradado_sin_nombre_2-3" data-name="Degradado sin nombre 2" x1="77.79" y1="448.33" x2="77.79" y2="216.49" xlink:href="#Degradado_sin_nombre_2"/>
    <linearGradient id="Degradado_sin_nombre_2-4" data-name="Degradado sin nombre 2" x1="78.63" y1="448.33" x2="78.63" y2="216.49" gradientTransform="translate(13.68 -16.72) rotate(13.28)" xlink:href="#Degradado_sin_nombre_2"/>
    <linearGradient id="Degradado_sin_nombre_2-5" data-name="Degradado sin nombre 2" x1="178.29" y1="448.33" x2="178.29" y2="216.49" xlink:href="#Degradado_sin_nombre_2"/>
    <linearGradient id="Degradado_sin_nombre_2-6" data-name="Degradado sin nombre 2" x1="345.34" y1="448.33" x2="345.34" y2="216.49" xlink:href="#Degradado_sin_nombre_2"/>
    <linearGradient id="Degradado_sin_nombre_2-7" data-name="Degradado sin nombre 2" x1="434.01" y1="448.33" x2="434.01" y2="216.49" xlink:href="#Degradado_sin_nombre_2"/>
    <linearGradient id="Degradado_sin_nombre_2-8" data-name="Degradado sin nombre 2" x1="85.24" y1="448.33" x2="85.24" y2="216.49" gradientTransform="translate(4.96 -1.14) rotate(.79)" xlink:href="#Degradado_sin_nombre_2"/>
    <clipPath id="clippath">
      <path d="m231.97,151.36s6.37.58,12.89-4.05c6.52-4.63,9.41-1.3,10.28.58.87,1.88.43,7.82-5.79,10.86-6.23,3.04-16.51,5.5-19.4-.29-2.9-5.79,2.03-7.1,2.03-7.1Z" style="fill: none; stroke-width: 0px;"/>
    </clipPath>
  </defs>
  <g id="BACKGROUND">
    <g style="opacity: .5;">
      <path d="m385.82,242.21c5.62-15.16,8.7-31.57,8.7-48.69,0-38.39-15.46-73.17-40.48-98.47,9.21-4.04,15.65-13.23,15.65-23.93,0-14.43-11.69-26.12-26.12-26.12-13.54,0-24.67,10.3-25.99,23.49-18.96-9.59-40.4-14.99-63.1-14.99-27.89,0-53.87,8.16-75.7,22.21-8.22-13.33-22.95-22.22-39.76-22.22-25.78,0-46.68,20.9-46.68,46.68,0,20.31,12.97,37.58,31.07,44-5.78,15.35-8.96,31.99-8.96,49.36,0,12.64,1.68,24.89,4.82,36.53-17.73,7.87-30.11,25.62-30.11,46.27,0,27.95,22.66,50.61,50.61,50.61,8.37,0,16.25-2.04,23.21-5.64,2.04,12.4,12.8,21.86,25.77,21.86,10.8,0,20.07-6.56,24.05-15.9,13.17,4.1,27.17,6.31,41.69,6.31,33.28,0,63.85-11.62,87.88-31.01,6.12,4.44,13.65,7.06,21.78,7.06,20.54,0,37.19-16.65,37.19-37.19,0-12.45-6.12-23.46-15.51-30.21Z" style="fill: url(#Degradado_sin_nombre_2); stroke-width: 0px;"/>
      <circle cx="420.11" cy="111.9" r="18.1" transform="translate(-14.49 100.32) rotate(-13.39)" style="fill: url(#Degradado_sin_nombre_2-2); stroke-width: 0px;"/>
      <circle cx="77.79" cy="212.34" r="12.5" style="fill: url(#Degradado_sin_nombre_2-3); stroke-width: 0px;"/>
      <circle cx="78.63" cy="50.4" r="10.3" transform="translate(-9.48 19.41) rotate(-13.28)" style="fill: url(#Degradado_sin_nombre_2-4); stroke-width: 0px;"/>
      <path d="m178.29,356.29c-3.97,0-7.2,3.22-7.2,7.2s3.22,7.2,7.2,7.2,7.2-3.22,7.2-7.2-3.22-7.2-7.2-7.2Z" style="fill: url(#Degradado_sin_nombre_2-5); stroke-width: 0px;"/>
      <path d="m345.34,336.04c-6.9,0-12.5,5.59-12.5,12.5s5.59,12.5,12.5,12.5,12.5-5.59,12.5-12.5-5.59-12.5-12.5-12.5Z" style="fill: url(#Degradado_sin_nombre_2-6); stroke-width: 0px;"/>
      <circle cx="434.01" cy="246.21" r="20.92" style="fill: url(#Degradado_sin_nombre_2-7); stroke-width: 0px;"/>
      <circle cx="85.24" cy="359.29" r="20.92" transform="translate(-4.94 1.21) rotate(-.79)" style="fill: url(#Degradado_sin_nombre_2-8); stroke-width: 0px;"/>
    </g>
  </g>
  <g id="OBJECTS">
    <g>
      <ellipse cx="242.51" cy="434.85" rx="44.5" ry="6" style="fill: #7f7f7f; opacity: .5; stroke-width: 0px;"/>
      <g>
        <g>
          <g>
            <path d="m225.01,188.53l-6.16,3.41s1.09,74.67-.54,87.43c-1.63,12.76-4.62,20.09,5.7,20.09s17.92-10.05,17.92-10.05c0,0,15.48,15.75,29.05,9.77,2.99-3.26,2.44-2.44,2.99-23.89.54-21.45,2.72-54.03,2.72-54.03,0,0,31.71,12.78,56.55-.61,3.35-7.4-3.52-19.2-3.52-19.2,0,0-34.7,14.8-63.28-12.6l-41.42-.32Z" style="fill: #1e2139; stroke-width: 0px;"/>
            <g>
              <path d="m218.32,297.44l7.36,123.65s3.93,7.85,16.68,1.96l-1.47-108.93s3.93-2.94,8.34-.98l-4.71,109.82s6.22,5.06,15.56-.39l11.33-124.08s-11.52,7.44-29.48-9.08c0,0-14.28,14.77-23.6,8.03Z" style="fill: #1e2139; stroke-width: 0px;"/>
              <path d="m221.32,299.03s3.75,3.65,20.7-.86c0,0,10.62,7.4,23.06,6.65,4.4.75,5.04,7.29,5.04,7.29l1.29-13.62s-8.02,4.03-29.48-9.08c0,0-6.23,7.15-20.61,9.62Z" style="fill: #111421; stroke-width: 0px;"/>
              <path d="m232.63,186.1l6.01,27.84,6.12,20.91s-17.79-18.37-17.09-22.52c.69-4.16,3.93-4.39,1.96-6.81-1.96-2.43-5.31-2.23-5.31-2.58s-.64-13.84-.64-13.84l8.49-6.45.46,3.47Z" style="fill: #1e2139; stroke-width: 0px;"/>
              <g style="opacity: .49;">
                <path d="m239.76,232.31c-1.69-.32-3.37-.67-5.05-1.03-1.68-.35-3.35-.74-5.04-1.07-1.67-.38-3.35-.72-5.04-1.05-1.68-.34-3.37-.65-5.07-.93,1.72.02,3.44.21,5.15.45,1.71.23,3.4.58,5.09.91,1.68.38,3.36.76,5.02,1.22,1.66.45,3.31.93,4.94,1.51Z" style="fill: #c2cee4; stroke-width: 0px;"/>
              </g>
              <g>
                <g style="opacity: .49;">
                  <path d="m241.92,289.41c-.07-3.54-.07-7.08-.06-10.62l.11-10.61.26-10.61c.12-3.54.24-7.07.44-10.61.07,3.54.07,7.08.06,10.62l-.12,10.61-.26,10.61c-.11,3.54-.24,7.07-.44,10.61Z" style="fill: #c2cee4; stroke-width: 0px;"/>
                </g>
                <g style="opacity: .49;">
                  <path d="m223.68,189.09c.17,2.3.36,4.61.5,6.91l.42,6.91-.24-.26c1.32.18,2.62.47,3.85,1.06.6.31,1.23.69,1.59,1.39.33.69.33,1.46.07,2.15-.5,1.37-1.78,2.13-1.92,3.3-.21,1.21-.06,2.52.37,3.69.39,1.2,1.32,2.08,2.11,3.14l2.42,3.07c1.63,2.04,3.19,4.12,4.79,6.18-1.69-1.98-3.42-3.93-5.08-5.93l-2.51-2.99-1.26-1.51c-.43-.53-.76-1.13-1.01-1.77-.47-1.27-.65-2.64-.43-4,.05-.33.17-.71.35-1.02.18-.31.38-.58.58-.84.4-.52.79-1.01,1-1.56.22-.53.2-1.16-.03-1.65-.23-.49-.76-.85-1.3-1.13-1.11-.56-2.39-.86-3.64-1.04l-.24-.04v-.23s-.23-6.92-.23-6.92c-.07-2.31-.09-4.62-.14-6.93Z" style="fill: #c2cee4; stroke-width: 0px;"/>
                </g>
                <g style="opacity: .49;">
                  <path d="m267.01,189.09c-.05,2.31-.07,4.62-.14,6.93l-.22,6.92v.23s-.24.04-.24.04c-1.25.19-2.53.49-3.64,1.04-.54.28-1.08.65-1.3,1.13-.23.49-.24,1.12-.03,1.65.21.55.6,1.04,1,1.56.2.26.4.53.58.84.19.31.3.68.35,1.02.21,1.36.04,2.73-.43,4-.24.63-.57,1.24-1.01,1.77l-1.26,1.51-2.51,2.99c-1.66,2-3.39,3.95-5.08,5.93,1.59-2.06,3.16-4.15,4.79-6.18l2.42-3.07c.79-1.06,1.72-1.94,2.11-3.14.43-1.17.57-2.48.37-3.69-.14-1.17-1.43-1.93-1.92-3.3-.26-.68-.26-1.46.07-2.15.35-.7.99-1.08,1.59-1.39,1.23-.59,2.53-.88,3.85-1.06l-.24.26.42-6.91c.14-2.3.33-4.61.5-6.91Z" style="fill: #c2cee4; stroke-width: 0px;"/>
                </g>
                <g style="opacity: .49;">
                  <path d="m219.39,218.91c-.01-1.89,0-3.78.02-5.67,0-1.89.05-3.77.03-5.66.02-1.88,0-3.77-.04-5.65-.04-1.88-.11-3.77-.23-5.65.38,1.86.58,3.74.72,5.63.14,1.89.16,3.78.18,5.68-.03,1.89-.06,3.78-.18,5.67-.11,1.89-.26,3.77-.51,5.65Z" style="fill: #c2cee4; stroke-width: 0px;"/>
                </g>
                <path d="m243.28,233.2s-15.91-4.03-22.36-4.84c-.37-.02-.8-.06-1.24-.12-.04,0-.08,0-.11,0h0c-.87-.14-1.8-.36-2.45-.76-1.65-1.01-1.69-2.37-1.09-3.98.6-1.61,3.35-4.59,3.35-4.59h0l-.54-26.97s-8.69,7.06-16.83,20.64c-9.76,16.26-10.59,29.32,3.8,34.48,13.58,2.99,34.75,2.44,34.75,2.44,0,0,3.53-9.23,2.72-16.29Z" style="fill: #1e2139; stroke-width: 0px;"/>
              </g>
            </g>
            <g>
              <path d="m228.13,423.45s-3.57,3.97-11.76,6.17c-8.19,2.2-9.6,3.46-7.4,5.67,2.2,2.2,13.22,3.15,20.78.47,7.56-2.68,10.34-5.8,10.66-12.09,0,0-5.36,2.93-12.28-.21Z" style="fill: #211722; stroke-width: 0px;"/>
              <path d="m257.78,423.45s3.77,3.97,11.96,6.17c8.19,2.2,9.6,3.46,7.4,5.67-2.2,2.2-13.22,3.15-20.78.47-7.56-2.68-10.39-6.01-10.7-12.31,0,0,5.19,3.15,12.12,0Z" style="fill: #211722; stroke-width: 0px;"/>
              <path d="m258.8,186.42l-8.31,27.66-5.68,21.34s19.65-18.62,18.96-22.78c-.69-4.16-3.93-4.39-1.96-6.81,1.96-2.43,4.39-2.66,4.39-3s.23-13.98.23-13.98l-7.16-5.89-.46,3.47Z" style="fill: #1e2139; stroke-width: 0px;"/>
            </g>
          </g>
          <path d="m333.65,196.76s.11,5.74-5,9.09c0,0,3.52,9.69,2.99,13.21,0,0,13.21-3.52,14.97-22.19l-12.97-.11Z" style="fill: #ffc09c; stroke-width: 0px;"/>
        </g>
        <g>
          <path d="m232.17,182.64l6.47,31.3,5.74,19.66,6.04-18.85,10.51-30.15s.72-5.51-7-5.87c0,0-7.49,4-15.81.26,0,0-3.78-4.09-5.94,3.65Z" style="fill: #fff; stroke-width: 0px;"/>
          <path d="m239.44,190.49l2.54,10.16s2.66-1.62,6.35-.46l2.54-7.16s-.12-5.2-3.93-8.32l-3.83.34s-2.87,1.63-3.67,5.44Z" style="fill: #ec6343; stroke-width: 0px;"/>
          <path d="m246.95,184.71s5.43,2.89,3.81,13.63c0,0,8.66-6.01,9.93-12.71,1.27-6.7-6.77-6.91-6.77-6.91,0,0-1.54,4.37-6.97,5.99Z" style="fill: none; stroke: #fff; stroke-miterlimit: 10; stroke-width: 1.29px;"/>
          <path d="m238.64,213.94l3.35-13.28s3.23-1.85,6.35-.46l2.08,14.55-5.66,20.1-6.12-20.91Z" style="fill: #ec6343; stroke-width: 0px;"/>
          <path d="m239.43,195.59s-8.96-7.64-6.85-14.23c2.11-6.59,5.53-2.37,5.53-2.37,0,0,2.11,6.06,5.01,6.06,0,0-5.27,2.64-3.69,10.54Z" style="fill: none; stroke: #fff; stroke-miterlimit: 10; stroke-width: 1.29px;"/>
        </g>
        <g style="opacity: .49;">
          <path d="m219.17,249.05c1.79-.04,3.57-.03,5.36,0l5.35.12,5.34.2c1.78.06,3.56.16,5.35.14-1.77.29-3.57.32-5.35.36-1.79.03-3.57-.02-5.36-.05-1.78-.08-3.57-.15-5.35-.27-1.78-.12-3.56-.27-5.34-.49Z" style="fill: #c2cee4; stroke-width: 0px;"/>
        </g>
      </g>
      <g>
        <path d="m274.2,231.46c2.17-2.17.49-3.19-1.41-3.19s-17.57-.46-20.67,1.65c-2.12,1.44-6.93,4.37-9.11,4.64,0,0,.27,7.33-1.63,12.49,0,0,4.07.27,10.05,1.9,0,0,1.68.32,3.07.65,1.39.33,3.3-1.59,3.9-2.44.06-.08.11-.14.16-.2.12-.1.24-.21.36-.31.38-.22.82-.24,1.72-.87,1.28-.89,1.51-2.4,1.88-3.4.18-.28.35-.55.5-.79.52-.56,1.27-1,1.65-1.82.44-.93.51-2.3.36-2.77.04-.72-.49-1.49-.81-1.99-1.33-2.07,7.8-1.37,9.98-3.54Z" style="fill: #ffc09c; stroke-width: 0px;"/>
        <path d="m242.14,243.79s10.5,3.1,13.94,2.25c3.43-.86,3.96-2.25,4.69-3.1s2.24-1.35,2.24-1.35l-.5.79s-.16,2.52-1.88,3.4l-1.72.87s-2.51,3.42-4.42,2.96c-1.92-.46-10.5-2.4-13.11-2.55l.76-3.26Z" style="fill: #fca68a; stroke-width: 0px;"/>
      </g>
      <g>
        <path d="m316.08,192.96s1.55,42.6-1.86,64.71c-1.52,3.58-5.2-1.2-5.2-1.2,0,0-1.68,7.38,29.51,5.63,0,0,26.36.29,30.46-7.98,4.1-8.27,3.4-31.34,3.4-31.34l-.96-31.75-55.36,1.94Z" style="fill: #fff; stroke-width: 0px;"/>
        <g>
          <line x1="322.94" y1="205.5" x2="364.45" y2="203.89" style="fill: none; stroke: #7f7f7f; stroke-linecap: round; stroke-miterlimit: 10; stroke-width: 1.29px;"/>
          <line x1="322.94" y1="208.71" x2="364.45" y2="207.11" style="fill: none; stroke: #7f7f7f; stroke-linecap: round; stroke-miterlimit: 10; stroke-width: 1.29px;"/>
          <line x1="322.94" y1="211.61" x2="364.45" y2="210" style="fill: none; stroke: #7f7f7f; stroke-linecap: round; stroke-miterlimit: 10; stroke-width: 1.29px;"/>
          <line x1="322.78" y1="214.83" x2="364.28" y2="213.22" style="fill: none; stroke: #7f7f7f; stroke-linecap: round; stroke-miterlimit: 10; stroke-width: 1.29px;"/>
          <line x1="322.78" y1="218.37" x2="364.28" y2="216.76" style="fill: none; stroke: #7f7f7f; stroke-linecap: round; stroke-miterlimit: 10; stroke-width: 1.29px;"/>
          <line x1="322.61" y1="221.59" x2="364.12" y2="219.98" style="fill: none; stroke: #7f7f7f; stroke-linecap: round; stroke-miterlimit: 10; stroke-width: 1.29px;"/>
          <line x1="322.45" y1="224.96" x2="363.96" y2="223.36" style="fill: none; stroke: #7f7f7f; stroke-linecap: round; stroke-miterlimit: 10; stroke-width: 1.29px;"/>
          <line x1="322.13" y1="228.34" x2="363.64" y2="226.73" style="fill: none; stroke: #7f7f7f; stroke-linecap: round; stroke-miterlimit: 10; stroke-width: 1.29px;"/>
          <line x1="322.13" y1="231.84" x2="351.57" y2="230.64" style="fill: none; stroke: #7f7f7f; stroke-linecap: round; stroke-miterlimit: 10; stroke-width: .94px;"/>
        </g>
        <path d="m347.72,241.21c.08.06.04.23-.12.36-.16.14-.43.22-.66.2-.36-.01-.73-.25-.89-.58-.17-.32-.2-.71-.02-1.06l.79-1.6-.31,1.75c-.08.45-.21.89-.5,1.3-.14.2-.35.4-.64.48-.28.08-.6.02-.84-.15-.46-.35-.59-.94-.47-1.44.12-.49.41-.87.65-1.22l.4-.56.11.68c.16,1.03-.41,2.02-1.25,2.53-.42.26-.94.4-1.45.33-.51-.06-.98-.3-1.35-.63-.74-.64-1.12-1.78-.73-2.75.18-.47.41-.84.73-1.24.16-.2.44-.4.76-.44.31-.05.61.03.85.17.49.25.82.82.86,1.33.05.52-.07,1.01-.22,1.45-.31.87-.76,1.71-1.46,2.38-.35.33-.77.61-1.25.77-.48.17-1.02.17-1.47.11-.45-.05-.86-.12-1.21-.07-.34.05-.63.24-.89.53-.52.59-.89,1.37-1.03,2.15-.15.79.04,1.54.67,1.89.6.37,1.47.38,2.07.02.62-.37,1.02-1.1,1.14-1.86.26-1.57-.72-3.1-1.94-4.22-.61-.57-1.37-1.09-1.98-1.87-.62-.77-.96-1.93-.52-2.98.08-.21.32-.42.54-.49.22-.08.41-.04.46.04.06.09.02.26.01.42-.02.17-.03.32-.08.43-.12.28-.15.65-.09,1,.07.35.22.66.46.98.47.63,1.17,1.14,1.85,1.77.66.63,1.28,1.36,1.7,2.22.43.85.64,1.87.47,2.84-.16.96-.67,1.94-1.59,2.47-.93.52-2.07.49-2.97-.06-.45-.27-.82-.73-.97-1.25-.16-.51-.14-1.03-.05-1.51.19-.95.6-1.82,1.25-2.55.33-.36.81-.69,1.36-.76.53-.07,1,.03,1.42.08.82.15,1.53-.1,2.13-.66.59-.55,1.02-1.29,1.3-2.07.29-.77.32-1.63-.3-1.96-.3-.16-.55-.15-.78.12-.23.29-.48.68-.62,1.03-.3.7-.04,1.54.54,2.06.56.54,1.42.67,2.08.25.66-.39,1.11-1.19.99-1.93l.51.12c-.25.34-.49.67-.57,1.01-.09.32.02.7.25.87.22.17.54.1.74-.2.21-.29.34-.68.41-1.07l.48.16c-.19.35.07.91.49.91.28.05.59-.17.75-.07" style="fill: #838383; stroke-width: 0px;"/>
      </g>
      <g>
        <path d="m336.48,183.97s-4.74-.81-5.71,2.58c-.97,3.39.25,11.07,4.12,11.44,2.25,0,3.11-1.08,3.11-1.08,0,0,2.02,2.46,5.2,1.67,1.72-.43,2.52-1.61,2.52-1.61,0,0,1.98,2.79,4.56,1.29,2.01-1.17,3.64-12.5,1.29-13.87-2.35-1.37-5.73.12-5.73.12,0,0-4.2-5.52-9.36-.55Z" style="fill: #ffc09c; stroke-width: 0px;"/>
        <path d="m336.48,183.97s6.66-2.36,8.49,1.43c1.61,3.32,1.61,5.31,1.61,5.31,0,0,.66-4.98,2.49-5.24,2.33-.34,3.63,3.77,3.63,3.77,0,0,.71-3.33-1.13-4.83-1.84-1.51-5.73.12-5.73.12,0,0-3.91-5.8-9.36-.55Z" style="fill: #fca68a; stroke-width: 0px;"/>
        <path d="m336.27,184.89c.24,1.89.45,3.74.71,5.6.24,1.86.56,3.7.83,5.58-.76-1.75-1.21-3.62-1.47-5.5-.25-1.88-.34-3.8-.07-5.69Z" style="fill: #ee967f; stroke-width: 0px;"/>
        <path d="m345.91,196.21c.04-1.65.18-3.26.3-4.87.12-1.62.22-3.21.27-4.86.45,1.59.48,3.27.37,4.91-.14,1.64-.4,3.26-.94,4.83Z" style="fill: #ee967f; stroke-width: 0px;"/>
      </g>
      <g>
        <path d="m215.02,106.08s-2.75,12.02,4.92,18.68c0,0,3.77-7.62,2.1-17.28.07-.68-4.28.48-7.03-1.4Z" style="fill: #532100; stroke-width: 0px;"/>
        <g>
          <path d="m221.77,107.3s2.37,11.33-3.95,21.08c-6.33,9.75-10.02,27.41,5.01,37.16,15.02,9.75,37.69,4.48,44.8-12.39l3.43-8.43s6.33,0,7.38-6.59c1.05-6.59-3.43-7.91-7.64-5.53,0,0-7.64-9.75-3.95-26.36,0,0-13.7,9.49-24.51-4.48,0,0-8.17,11.07-17.66,1.32,0,0-.26,3.43-2.9,4.22Z" style="fill: #ffc09c; stroke-width: 0px;"/>
          <g>
            <path d="m231.97,151.36s6.37.58,12.89-4.05c6.52-4.63,9.41-1.3,10.28.58.87,1.88.43,7.82-5.79,10.86-6.23,3.04-16.51,5.5-19.4-.29-2.9-5.79,2.03-7.1,2.03-7.1Z" style="fill: #7f150a; stroke-width: 0px;"/>
            <g style="clip-path: url(#clippath);">
              <path d="m231.97,151.36s.72,4.05,2.32,5.07c1.59,1.01,14.77-1.74,17.09-5.5,2.32-3.76,1.74-5.65,1.74-5.65,0,0-3.48-1.73-6.08.43-2.63,2.19-9.98,5.49-15.06,5.65Z" style="fill: #fff; stroke-width: 0px;"/>
              <path d="m237.58,161.95s5.84-5.64,16.12-6.65c0,0-3.81,6.79-16.12,6.65Z" style="fill: #ff5e6e; stroke-width: 0px;"/>
              <path d="m245.77,146.63s3.1,3.17.2,7.66c0,0,4.08-1.17,5.41-3.36,1.33-2.19,2.01-4.41,1.74-5.65,0,0-3.31-1.04-5.16.09s-2.18,1.26-2.18,1.26Z" style="fill: #e9e9e9; stroke-width: 0px;"/>
            </g>
          </g>
          <g>
            <path d="m239.96,170.29s-.53,6.06-1.84,8.7c0,0,1.58,7.38,7.91,6.06,6.33-1.32,7.91-6.33,7.91-6.33l1.58-12.39s-9.22,3.94-15.55,3.95Z" style="fill: #ffc09c; stroke-width: 0px;"/>
            <path d="m255.51,166.34s-5.42,3.32-11.58,3.58c0,0,5.54,5.14,10.65,3.78l.93-7.36Z" style="fill: #fca68a; stroke-width: 0px;"/>
          </g>
          <g>
            <path d="m219.13,81.47s-8.17-.26-10.54,9.49c-2.37,9.75,5.56,18.01,13.2,16.69,0,0,3.1-1.19,2.87-4.57,0,0,8.16,10.65,17.66-1.32,0,0,8.96,15.02,24.51,4.48,0,0-4.22,13.97,3.95,26.36,0,0,6.91-3.27,7.7,2.53,0,0,15.76-7.8,12.07-33.37-3.69-25.57-17.13-16.08-17.13-16.08,0,0-.26-22.14-25.57-11.86,0,0-5.27-11.07-17.66-6.59-12.39,4.48-11.07,14.23-11.07,14.23Z" style="fill: #532100; stroke-width: 0px;"/>
            <g>
              <path d="m215.02,106.08s1.95,2.89,3.01,5.47c1.06,2.58,3.37,7.66,3.37,7.66,0,0,1.39-2.51.4-11.56.25-.17-2.84,1.15-6.77-1.57Z" style="fill: #3a1500; stroke-width: 0px;"/>
              <path d="m281.05,84.4s8.59,20.74,1.06,26.16c-6.87,6.87-15.98-.66-15.98-.66,0,0-2.28,14.62,4.67,22.7,0,0,6.68-3.44,7.7,2.53,0,0,11.27-5.81,12.33-22.19,1.06-16.38-3.57-27.35-9.78-28.54Z" style="fill: #3a1500; stroke-width: 0px;"/>
              <path d="m262.81,71.46s9.91,5.68,7.93,17.97c-.4,3.17-.92,4.62-.92,4.62,0,0,3.52-4.69,3.61-8.36.09-3.66-1.5-12.65-10.61-14.23Z" style="fill: #3a1500; stroke-width: 0px;"/>
              <path d="m266.84,106.25s2.19-2.82,2.58-5.33c0,0-3.83,5.94-8.72,8.32,0,0,3.42-.96,6.14-2.99Z" style="fill: #3a1500; stroke-width: 0px;"/>
              <path d="m247.86,73.83s.95,2.52.29,6.61c0,0-1.06-8.72-7.53-13.21,0,0,3.65-.54,7.24,6.6Z" style="fill: #3a1500; stroke-width: 0px;"/>
              <path d="m245.04,90.11s.51,5.57-2.48,11.46c-1.66,3.16-6.24,5.54-7.65,5.62,0,0,7.31-4.23,10.13-17.09Z" style="fill: #3a1500; stroke-width: 0px;"/>
            </g>
          </g>
          <g>
            <g>
              <path d="m247.06,114.86s-1.31,3.88-.4,6.11c.91,2.23,3.45-1.13,7.82.71,4.37,1.84,5.81,1.22,6.58-.55.77-1.77.86-3.82-1.49-4.69-2.34-.88-11.53-3.76-12.52-1.59Z" style="fill: #532100; stroke-width: 0px;"/>
              <path d="m220.51,114.95s-.48,3.39.61,5.09c1.09,1.7,2.67-1.45,6.54-.61,3.88.85,4.97.12,5.33-1.45.36-1.57.12-3.27-1.94-3.63-2.06-.36-10.06-1.33-10.54.61Z" style="fill: #532100; stroke-width: 0px;"/>
            </g>
            <g>
              <path d="m230.82,127.83c0,2.12-1.36,3.84-3.04,3.84s-3.04-1.72-3.04-3.84,1.36-3.84,3.04-3.84,3.04,1.72,3.04,3.84Z" style="fill: #2b2b2b; stroke-width: 0px;"/>
              <path d="m255.72,129.14c0,2.12-1.36,3.84-3.04,3.84s-3.04-1.72-3.04-3.84,1.36-3.84,3.04-3.84,3.04,1.72,3.04,3.84Z" style="fill: #2b2b2b; stroke-width: 0px;"/>
            </g>
            <g>
              <g>
                <ellipse cx="219.81" cy="125.37" rx="13.03" ry="13.68" style="fill: none; stroke: #2b2b2b; stroke-linecap: round; stroke-miterlimit: 10; stroke-width: 1.25px;"/>
                <circle cx="254.49" cy="129.57" r="13.68" transform="translate(70.21 347.74) rotate(-76.8)" style="fill: none; stroke: #2b2b2b; stroke-linecap: round; stroke-miterlimit: 10; stroke-width: 1.25px;"/>
                <path d="m232.55,124.43s3.48-3.76,8.83.29" style="fill: none; stroke: #2b2b2b; stroke-linecap: round; stroke-miterlimit: 10; stroke-width: 1.25px;"/>
              </g>
              <path d="m233.68,121.9s.78,7.93-4.34,11.44c-5.96,4.09-3.72,12.3-.3,11.65,1.78-.34,3.32-.98,5.18-3.79,1.99-3.01.91-10.75-.54-19.3Z" style="fill: #ee967f; stroke-width: 0px;"/>
            </g>
          </g>
        </g>
        <g>
          <path d="m275.56,135.87c-.6-.25-1.25-.33-1.78-.18-.53.16-.93.59-1.22,1.1-.57,1.05-.82,2.31-1.2,3.56-.12-1.3,0-2.65.64-3.88.34-.59.92-1.18,1.67-1.27.74-.1,1.42.21,1.89.67Z" style="fill: #ee967f; stroke-width: 0px;"/>
          <path d="m274.55,137.75c-.63.04-1.19-.02-1.73-.02-.27-.01-.52.01-.75.07-.23.06-.47.16-.71.39,0-.32.19-.67.49-.85.3-.19.65-.25.97-.25.64.02,1.25.23,1.72.66Z" style="fill: #ee967f; stroke-width: 0px;"/>
        </g>
      </g>
    </g>
  </g>
</svg>