<?xml version="1.0" encoding="UTF-8"?>
<svg xmlns="http://www.w3.org/2000/svg" xmlns:xlink="http://www.w3.org/1999/xlink" viewBox="0 0 500 500">
  <defs>
    <clipPath id="clippath">
      <path d="m224.3,193.93c-10.48-3.54-39.41-12.4-39.41-12.4,0,0-6.53,15.47-25.4,15.86,0,0-4.4-.24-4.4-.24-14.33-.43-24.82-15.62-24.82-15.62,0,0-24.69,3.7-35.15,7.29-41.19,14.13-47.56,64.6-47.56,64.6,0,0,4.19,1.6,15.37,7.39,15.44,8,32.37,15.16,32.37,15.16l1.76-10.22c-8.19,48.83-19.59,98.93-19.59,98.93,0,0,37.06,10.63,86.76,10.63,51.74,0,75.6-13.18,75.6-13.18,0,0-13.28-71.4-20.64-95.39,0,0,11.95-1.36,27.73-7.62,10.28-4.08,21.68-9.35,21.68-9.35,0,0-10.2-44.33-44.3-55.85Z" style="fill: #e06f5b; stroke-width: 0px;"/>
    </clipPath>
  </defs>
  <g style="isolation: isolate;">
    <g id="BACKGROUND">
      <rect width="500" height="500" style="fill: #fff; stroke-width: 0px;"/>
    </g>
    <g id="OBJECTS">
      <g>
        <g>
          <path d="m440.93,312.8c-27.62,74.28-101.5,121.4-178.61,128.79-2.85.28-5.72.49-8.58.66-3.14.18-6.29.29-9.44.34-53.32.85-106.86-16.74-149.27-49.08-1.45-1.11-2.87-2.23-4.27-3.38-5.53-4.51-10.65-9.27-15.37-14.26-33.16-35.07-46.54-81.56-42.85-131.43,2.43-32.83,20.74-62.86,46.64-82.67,6.96-5.32,14.51-9.49,22.34-13.08,5.9-2.71,11.99-5.08,18.1-7.36,1.05-.4,2.1-.79,3.15-1.18,2.37-.88,4.74-1.75,7.11-2.62.45-.17.9-.33,1.34-.5.67-.25,1.34-.49,2-.74.21-.08.41-.16.61-.23,2.39-.9,4.77-1.81,7.13-2.75.67-.26,1.33-.53,1.99-.8,3.41-1.38,6.78-2.84,10.08-4.41.25-.11.49-.22.73-.34,2.61-1.26,5.17-2.59,7.69-4.01.73-.41,1.45-.83,2.17-1.25,1.38-.82,2.73-1.67,4.07-2.55t0,0c1.64-1.07,3.25-2.2,4.83-3.39.02-.02.05-.03.07-.05.4-.31.8-.61,1.2-.91,1.27-.97,2.54-1.94,3.82-2.91,1.2-.92,2.4-1.84,3.6-2.76.84-.65,1.69-1.3,2.53-1.95,17-13.07,34.38-26.42,53.32-36.01,42.52-21.54,94.56-18.82,135.74,5.53,35.75,21.14,60.27,56.71,72.3,96.02,13.77,45.05,12.25,95.14-4.17,139.29Z" style="fill: #daf0fd; stroke-width: 0px;"/>
          <g>
            <circle cx="83.85" cy="119.99" r="5.88" style="fill: none; stroke: #0f1109; stroke-linecap: round; stroke-miterlimit: 10; stroke-width: 1.06px;"/>
            <circle cx="288.53" cy="406.65" r="5.88" style="fill: none; stroke: #0f1109; stroke-linecap: round; stroke-miterlimit: 10; stroke-width: 1.06px;"/>
            <circle cx="413.56" cy="74.4" r="5.88" style="fill: none; stroke: #0f1109; stroke-linecap: round; stroke-miterlimit: 10; stroke-width: 1.06px;"/>
            <path d="m204.77,58.99c-1.14,4.12-2.06,5.04-6.18,6.18,4.12,1.14,5.04,2.06,6.18,6.18,1.14-4.12,2.06-5.04,6.18-6.18-4.12-1.14-5.04-2.06-6.18-6.18Z" style="fill: #f1d156; stroke-width: 0px;"/>
            <path d="m182.03,70.94c-1.53,5.55-2.77,6.79-8.32,8.32,5.55,1.53,6.79,2.77,8.32,8.32,1.53-5.55,2.77-6.79,8.32-8.32-5.55-1.53-6.79-2.77-8.32-8.32Z" style="fill: #f1d156; stroke-width: 0px;"/>
            <path d="m402.1,390.52c-1.53,5.55-2.77,6.79-8.32,8.32,5.55,1.53,6.79,2.77,8.32,8.32,1.53-5.55,2.77-6.79,8.32-8.32-5.55-1.53-6.79-2.77-8.32-8.32Z" style="fill: #f1d156; stroke-width: 0px;"/>
            <path d="m181.61,51.48c-.83,3-1.5,3.67-4.5,4.5,3,.83,3.67,1.5,4.5,4.5.83-3,1.5-3.67,4.5-4.5-3-.83-3.67-1.5-4.5-4.5Z" style="fill: #f1d156; stroke-width: 0px;"/>
            <path d="m427.98,370.81c-.83,3-1.5,3.67-4.5,4.5,3,.83,3.67,1.5,4.5,4.5.83-3,1.5-3.67,4.5-4.5-3-.83-3.67-1.5-4.5-4.5Z" style="fill: #f1d156; stroke-width: 0px;"/>
            <path d="m106.28,162.7c-.83,3-1.5,3.67-4.5,4.5,3,.83,3.67,1.5,4.5,4.5.83-3,1.5-3.67,4.5-4.5-3-.83-3.67-1.5-4.5-4.5Z" style="fill: #fff; stroke-width: 0px;"/>
            <path d="m296.31,155.82c-.83,3-1.5,3.67-4.5,4.5,3,.83,3.67,1.5,4.5,4.5.83-3,1.5-3.67,4.5-4.5-3-.83-3.67-1.5-4.5-4.5Z" style="fill: #fff; stroke-width: 0px;"/>
            <path d="m362.24,335.35c-.83,3-1.5,3.67-4.5,4.5,3,.83,3.67,1.5,4.5,4.5.83-3,1.5-3.67,4.5-4.5-3-.83-3.67-1.5-4.5-4.5Z" style="fill: #fff; stroke-width: 0px;"/>
            <path d="m371.39,374.3c2.36,0,2.36,3.75,4.72,3.75s2.36-3.75,4.72-3.75,2.36,3.75,4.72,3.75,2.36-3.75,4.72-3.75,2.36,3.75,4.72,3.75,2.36-3.75,4.72-3.75,2.36,3.75,4.72,3.75,2.36-3.75,4.72-3.75,2.36,3.75,4.72,3.75" style="fill: none; stroke: #43434d; stroke-linecap: round; stroke-miterlimit: 10; stroke-width: 1.32px;"/>
            <path d="m76.41,67.08c2.36,0,2.36,3.75,4.72,3.75s2.36-3.75,4.72-3.75,2.36,3.75,4.72,3.75,2.36-3.75,4.72-3.75,2.36,3.75,4.72,3.75,2.36-3.75,4.72-3.75,2.36,3.75,4.72,3.75,2.36-3.75,4.72-3.75,2.36,3.75,4.72,3.75" style="fill: none; stroke: #43434d; stroke-linecap: round; stroke-miterlimit: 10; stroke-width: 1.32px;"/>
            <path d="m222.74,164.76c2.36,0,2.36,3.75,4.72,3.75s2.36-3.75,4.72-3.75,2.36,3.75,4.72,3.75,2.36-3.75,4.72-3.75,2.36,3.75,4.72,3.75,2.36-3.75,4.72-3.75,2.36,3.75,4.72,3.75,2.36-3.75,4.72-3.75,2.36,3.75,4.72,3.75" style="fill: none; stroke: #43434d; stroke-linecap: round; stroke-miterlimit: 10; stroke-width: 1.32px;"/>
            <path d="m247.61,176.04c2.36,0,2.36,3.75,4.72,3.75s2.36-3.75,4.72-3.75,2.36,3.75,4.72,3.75,2.36-3.75,4.72-3.75,2.36,3.75,4.72,3.75,2.36-3.75,4.72-3.75,2.36,3.75,4.72,3.75,2.36-3.75,4.72-3.75,2.36,3.75,4.72,3.75" style="fill: none; stroke: #43434d; stroke-linecap: round; stroke-miterlimit: 10; stroke-width: 1.32px;"/>
            <path d="m54.99,76.38c2.41,0,2.41,4,4.81,4s2.41-4,4.82-4,2.41,4,4.81,4,2.41-4,4.82-4,2.41,4,4.82,4,2.41-4,4.82-4,2.41,4,4.81,4,2.41-4,4.82-4,2.41,4,4.81,4,2.41-4,4.82-4,2.41,4,4.82,4,2.41-4,4.82-4,2.41,4,4.82,4,2.41-4,4.82-4,2.41,4,4.82,4,2.41-4,4.82-4,2.41,4,4.82,4,2.41-4,4.82-4" style="fill: none; stroke: #43434d; stroke-linecap: round; stroke-miterlimit: 10; stroke-width: 1.32px;"/>
          </g>
          <g>
            <g>
              <path d="m311.58,334.02c2.46-1.04,5.17-1.62,8.02-1.62,4.42,0,8.52,1.39,11.88,3.77" style="fill: none; stroke: #43434d; stroke-linecap: round; stroke-miterlimit: 10; stroke-width: 1.32px;"/>
              <path d="m303.24,365.53c-2.66-3.47-4.25-7.81-4.25-12.53,0-3.61.93-7,2.56-9.95" style="fill: none; stroke: #43434d; stroke-linecap: round; stroke-miterlimit: 10; stroke-width: 1.32px;"/>
              <path d="m340.19,353c0-4.55-1.47-8.75-3.97-12.16" style="fill: none; stroke: #43434d; stroke-linecap: round; stroke-miterlimit: 10; stroke-width: 1.32px;"/>
              <path d="m307.82,369.9c3.34,2.33,7.4,3.69,11.77,3.69,7.3,0,13.71-3.8,17.37-9.53" style="fill: none; stroke: #43434d; stroke-linecap: round; stroke-miterlimit: 10; stroke-width: 1.32px;"/>
              <polyline points="303.28 361.7 303.74 366.44 299.38 364.16" style="fill: none; stroke: #43434d; stroke-linecap: round; stroke-linejoin: round; stroke-width: 1.32px;"/>
              <polyline points="335.92 344.6 335.47 339.86 339.83 342.14" style="fill: none; stroke: #43434d; stroke-linecap: round; stroke-linejoin: round; stroke-width: 1.32px;"/>
            </g>
            <text transform="translate(292.42 345.55)" style="fill: #e06f5b; font-family: Quicksand-Regular, &apos;Quicksand Regular&apos;; font-size: 33.68px;"><tspan x="0" y="0">A</tspan></text>
            <text transform="translate(330.51 380.85)" style="fill: #e06f5b; font-family: Quicksand-Regular, &apos;Quicksand Regular&apos;; font-size: 33.68px;"><tspan x="0" y="0">Z</tspan></text>
          </g>
          <g>
            <g>
              <rect x="293.17" y="257.04" width="69.5" height="16.57" rx="8.28" ry="8.28" style="fill: #fff; stroke-width: 0px;"/>
              <g>
                <line x1="304.5" y1="262.61" x2="299.07" y2="268.04" style="fill: none; stroke: #e06f5b; stroke-linecap: round; stroke-miterlimit: 10;"/>
                <line x1="299.07" y1="262.61" x2="304.5" y2="268.04" style="fill: none; stroke: #e06f5b; stroke-linecap: round; stroke-miterlimit: 10;"/>
              </g>
            </g>
            <g>
              <rect x="340.88" y="277.7" width="54.14" height="16.57" rx="8.28" ry="8.28" style="fill: #fff; stroke-width: 0px;"/>
              <g>
                <line x1="352.22" y1="283.27" x2="346.79" y2="288.69" style="fill: none; stroke: #e06f5b; stroke-linecap: round; stroke-miterlimit: 10;"/>
                <line x1="346.79" y1="283.27" x2="352.22" y2="288.69" style="fill: none; stroke: #e06f5b; stroke-linecap: round; stroke-miterlimit: 10;"/>
              </g>
            </g>
            <g>
              <rect x="302.85" y="277.7" width="33.57" height="16.57" rx="8.28" ry="8.28" style="fill: #fff; stroke-width: 0px;"/>
              <g>
                <line x1="314.18" y1="283.27" x2="308.75" y2="288.69" style="fill: none; stroke: #e06f5b; stroke-linecap: round; stroke-miterlimit: 10;"/>
                <line x1="308.75" y1="283.27" x2="314.18" y2="288.69" style="fill: none; stroke: #e06f5b; stroke-linecap: round; stroke-miterlimit: 10;"/>
              </g>
            </g>
            <g>
              <rect x="399.12" y="277.7" width="41.86" height="16.57" rx="8.28" ry="8.28" style="fill: #fff; stroke-width: 0px;"/>
              <g>
                <line x1="410.46" y1="283.27" x2="405.03" y2="288.69" style="fill: none; stroke: #e06f5b; stroke-linecap: round; stroke-miterlimit: 10;"/>
                <line x1="405.03" y1="283.27" x2="410.46" y2="288.69" style="fill: none; stroke: #e06f5b; stroke-linecap: round; stroke-miterlimit: 10;"/>
              </g>
            </g>
            <g>
              <rect x="366.69" y="257.15" width="54.14" height="16.57" rx="8.28" ry="8.28" style="fill: #fff; stroke-width: 0px;"/>
              <g>
                <line x1="378.03" y1="262.72" x2="372.6" y2="268.14" style="fill: none; stroke: #e06f5b; stroke-linecap: round; stroke-miterlimit: 10;"/>
                <line x1="372.6" y1="262.72" x2="378.03" y2="268.14" style="fill: none; stroke: #e06f5b; stroke-linecap: round; stroke-miterlimit: 10;"/>
              </g>
            </g>
            <g>
              <rect x="353.62" y="298.25" width="72.39" height="16.57" rx="8.28" ry="8.28" style="fill: #fff; stroke-width: 0px;"/>
              <g>
                <line x1="364.95" y1="303.82" x2="359.52" y2="309.24" style="fill: none; stroke: #e06f5b; stroke-linecap: round; stroke-miterlimit: 10;"/>
                <line x1="359.52" y1="303.82" x2="364.95" y2="309.24" style="fill: none; stroke: #e06f5b; stroke-linecap: round; stroke-miterlimit: 10;"/>
              </g>
            </g>
          </g>
        </g>
        <g>
          <path d="m197.39,242.42c5.23,11.3,8.97,23.33,12.86,35.03,2.77,8.35,5.63,16.52,9.2,24.12,5.44,11.62,9.41,23.33,21.3,26.19.37.09.74.17,1.13.24,2.03.4,4.14.58,6.31.51,4.5-.15,8.72-1.35,12.42-3.37,8.95-4.87,14.87-14.49,14.53-25.37-.05-1.58-.12-3.15-.21-4.71-1.39-26.91-7.36-51.41-21.49-76.26-7.6-13.38-21.23-22.94-35.19-16.49-13.96,6.47-27.33,26.14-20.86,40.1Z" style="fill: #eaac93; stroke-width: 0px;"/>
          <path d="m126.6,156.51c1.98,4.41,7.36,7.05,12,5.72s7.82-6.62,6.62-11.3c-1.24-4.84-8.1-10.57-13.37-9.09s-7.29,10.12-5.25,14.67Z" style="fill: #31394b; stroke-width: 0px;"/>
          <path d="m184.78,145.71c3.31,1.94,4.69,6.41,3.5,10.05-1.19,3.65-4.61,6.33-8.36,7.13s-7.74-.12-11.06-2.04-2.22-6.3-1.51-9.88c.7-3.58,3.28-6.74,6.64-8.15s7.64,1.03,10.79,2.88Z" style="fill: #31394b; stroke-width: 0px;"/>
          <path d="m244.3,442.59c-53.32.85-106.86-16.74-149.27-49.08-1.45-1.11-2.87-2.23-4.27-3.38-5.53-4.51-10.65-9.27-15.37-14.26,3.62-14.42,7.52-28,11.7-39.9,1.79-5.09,3.62-9.87,5.51-14.28l15.74.34,18.03.37,32.59.7h.02l32.81.69h.28s20.74.45,20.74.45c0,0,13.35-12.23,21.35,13.2,1.34,4.27,2.54,9.63,3.5,16.29,2.47,17.25,6.97,53.48,6.64,88.86Z" style="fill: #43434d; stroke-width: 0px;"/>
          <path d="m121.59,242.42c-5.23,11.3-8.97,23.33-12.86,35.03-2.77,8.35-5.63,16.52-9.2,24.12-5.44,11.62-9.41,23.33-21.3,26.19-.37.09-.74.17-1.13.24-2.03.4-4.14.58-6.31.51-4.5-.15-8.72-1.35-12.42-3.37-8.95-4.87-14.87-14.49-14.53-25.37.05-1.58.12-3.15.21-4.71,1.39-26.91,7.36-51.41,21.49-76.26,7.6-13.38,21.23-22.94,35.19-16.49,13.96,6.47,27.33,26.14,20.86,40.1Z" style="fill: #eaac93; stroke-width: 0px;"/>
          <g>
            <path d="m181.07,153.64l-23.42,2.32-23.42-2.32s1.99,12.57-3.96,27.89c0,0,2,12.51,9.61,19.59,6.15,5.72,32.74,5.79,38.89.07,7.6-7.07,6.11-19.66,6.11-19.66-5.95-15.32-3.82-27.89-3.82-27.89Z" style="fill: #eaac93; stroke-width: 0px;"/>
            <path d="m181.41,143.9c0,7.75-.34,15.6-3.18,21.27-3.89,7.77-11.52,12.06-20.66,12.06s-16.68-4.41-20.58-12.18c-2.85-5.67-3.26-13.39-3.26-21.15,0-2.37-.01-4.9.08-7.39.01-.42.02-.82.05-1.22.17-3.56.59-6.97,1.59-9.71,3.57-9.8,11.65-12.29,22.12-12.29s18.8,2.76,22.32,12.75c1.03,2.95,1.38,6.66,1.48,10.47.01.3.01.59.01.89.05,2.2.02,4.4.02,6.5Z" style="fill: #eaac93; stroke-width: 0px;"/>
            <path d="m196.74,145.91c0-5.19-4.21-9.4-9.4-9.4s-12.29,4.21-12.29,9.4,7.1,9.4,12.29,9.4,9.4-4.21,9.4-9.4Z" style="fill: #eaac93; stroke-width: 0px;"/>
            <path d="m118.42,145.91c0-5.19,4.21-9.4,9.4-9.4s12.29,4.21,12.29,9.4-7.1,9.4-12.29,9.4-9.4-4.21-9.4-9.4Z" style="fill: #eaac93; stroke-width: 0px;"/>
            <g>
              <path d="m187.34,143.8c1.17,1.14,2.11,2.51,2.74,4.02" style="fill: none; stroke: #0f1109; stroke-linecap: round; stroke-miterlimit: 10; stroke-width: 1.11px;"/>
              <path d="m190.94,143.64c-1.61,1.2-3.03,2.66-4.2,4.3" style="fill: none; stroke: #0f1109; stroke-linecap: round; stroke-miterlimit: 10; stroke-width: 1.11px;"/>
              <path d="m127.82,143.8c-1.17,1.14-2.11,2.51-2.74,4.02" style="fill: none; stroke: #0f1109; stroke-linecap: round; stroke-miterlimit: 10; stroke-width: 1.11px;"/>
              <path d="m124.22,143.64c1.61,1.2,3.03,2.66,4.2,4.3" style="fill: none; stroke: #0f1109; stroke-linecap: round; stroke-miterlimit: 10; stroke-width: 1.11px;"/>
              <circle cx="149.32" cy="142.41" r=".92" style="fill: #050902; stroke-width: 0px;"/>
              <circle cx="167.61" cy="142.41" r=".92" style="fill: #050902; stroke-width: 0px;"/>
              <path d="m175.86,168.92s-6.66,8.31-18.29,8.31-17.69-7.78-17.69-7.78" style="fill: none; stroke: #0f1109; stroke-linecap: round; stroke-miterlimit: 10; stroke-width: 1.11px;"/>
              <ellipse cx="174.76" cy="154.8" rx="4.73" ry="4.78" transform="translate(-58.27 168.91) rotate(-45)" style="fill: #222221; mix-blend-mode: overlay; opacity: .3; stroke-width: 0px;"/>
              <path d="m145.07,155.73c.64-3.36-2.25-6.24-5.61-5.61-1.88.36-3.39,1.87-3.74,3.74-.64,3.36,2.25,6.25,5.61,5.61,1.88-.36,3.39-1.87,3.74-3.74Z" style="fill: #222221; mix-blend-mode: overlay; opacity: .3; stroke-width: 0px;"/>
              <path d="m160.02,141.28c.1,2.75.2,5.5.3,8.25.02.52.03,1.06-.2,1.53-.29.6-.94.96-1.6,1.07s-1.33.02-1.99-.08" style="fill: none; stroke: #0f1109; stroke-linecap: round; stroke-miterlimit: 10; stroke-width: 1.11px;"/>
              <path d="m150.6,152.09c-.02,1.82.85,3.64,2.29,4.76s3.41,1.52,5.17,1.05" style="fill: none; stroke: #0f1109; stroke-linecap: round; stroke-miterlimit: 10; stroke-width: 1.11px;"/>
              <ellipse cx="149.23" cy="136.51" rx="4.56" ry="1.21" transform="translate(-18.25 23.14) rotate(-8.36)" style="fill: #31394b; stroke-width: 0px;"/>
              <ellipse cx="169.06" cy="136.59" rx="1.21" ry="4.59" transform="translate(9.35 284) rotate(-81.64)" style="fill: #31394b; stroke-width: 0px;"/>
            </g>
          </g>
          <g>
            <path d="m224.3,193.93c-10.48-3.54-39.41-12.4-39.41-12.4,0,0-6.53,15.47-25.4,15.86,0,0-4.4-.24-4.4-.24-14.33-.43-24.82-15.62-24.82-15.62,0,0-24.69,3.7-35.15,7.29-41.19,14.13-47.56,64.6-47.56,64.6,0,0,4.19,1.6,15.37,7.39,15.44,8,32.37,15.16,32.37,15.16l1.76-10.22c-8.19,48.83-19.59,98.93-19.59,98.93,0,0,37.06,10.63,86.76,10.63,51.74,0,75.6-13.18,75.6-13.18,0,0-13.28-71.4-20.64-95.39,0,0,11.95-1.36,27.73-7.62,10.28-4.08,21.68-9.35,21.68-9.35,0,0-10.2-44.33-44.3-55.85Z" style="fill: #e06f5b;"/>
            <g style="clip-path: url(#clippath);">
              <line x1="271.93" y1="195.26" x2="41.33" y2="195.26" style="fill: none; stroke: #fff; stroke-miterlimit: 10; stroke-width: 1.48px;"/>
              <line x1="271.93" y1="215.02" x2="41.33" y2="215.02" style="fill: none; stroke: #fff; stroke-miterlimit: 10; stroke-width: 1.48px;"/>
              <line x1="271.93" y1="234.79" x2="41.33" y2="234.79" style="fill: none; stroke: #fff; stroke-miterlimit: 10; stroke-width: 1.48px;"/>
              <line x1="271.93" y1="254.56" x2="41.33" y2="254.56" style="fill: none; stroke: #fff; stroke-miterlimit: 10; stroke-width: 1.48px;"/>
              <line x1="271.93" y1="274.33" x2="41.33" y2="274.33" style="fill: none; stroke: #fff; stroke-miterlimit: 10; stroke-width: 1.48px;"/>
              <line x1="271.93" y1="294.1" x2="41.33" y2="294.1" style="fill: none; stroke: #fff; stroke-miterlimit: 10; stroke-width: 1.48px;"/>
              <line x1="271.93" y1="313.87" x2="41.33" y2="313.87" style="fill: none; stroke: #fff; stroke-miterlimit: 10; stroke-width: 1.48px;"/>
              <line x1="271.93" y1="333.64" x2="41.33" y2="333.64" style="fill: none; stroke: #fff; stroke-miterlimit: 10; stroke-width: 1.48px;"/>
              <line x1="271.93" y1="353.41" x2="41.33" y2="353.41" style="fill: none; stroke: #fff; stroke-miterlimit: 10; stroke-width: 1.48px;"/>
            </g>
          </g>
          <g>
            <path d="m51.19,244.65s18.24,9.55,44.11,22.1" style="fill: none; stroke: #0f1109; stroke-linecap: round; stroke-miterlimit: 10; stroke-width: 1.11px;"/>
            <line x1="219.18" y1="266.75" x2="213.77" y2="242.93" style="fill: none; stroke: #0f1109; stroke-linecap: round; stroke-miterlimit: 10; stroke-width: 1.11px;"/>
            <path d="m219.18,257.94s27.27-7.17,45.97-16.66" style="fill: none; stroke: #0f1109; stroke-linecap: round; stroke-miterlimit: 10; stroke-width: 1.11px;"/>
            <line x1="95.51" y1="274.78" x2="103.27" y2="243.46" style="fill: none; stroke: #0f1109; stroke-linecap: round; stroke-miterlimit: 10; stroke-width: 1.11px;"/>
          </g>
          <g>
            <rect x="104.76" y="229.89" width="105.75" height="79.56" transform="translate(-81.32 470.85) rotate(-99.79)" style="fill: #e8c245; stroke-width: 0px;"/>
            <path d="m194.03,310.74c0,.41.04.8.11,1.18l-56.44,9.73c-.46-2.99-3.04-5.27-6.15-5.27-.37,0-.74.03-1.1.1l-14.14-81.92c2.94-.5,5.17-3.06,5.17-6.14,0-.36-.03-.71-.09-1.05l55.94-9.65c.39,3.07,3,5.43,6.17,5.43.46,0,.91-.05,1.35-.15l14.08,81.65c-2.8.61-4.9,3.1-4.9,6.09Z" style="fill: none; stroke: #fff; stroke-miterlimit: 10; stroke-width: 1.48px;"/>
          </g>
          <g>
            <path d="m111.11,325.95c2.91,3.27,6.93,6.38,10.22,8.67,3.29,2.29,5.86,3.77,5.86,3.77,1.88,1.28,4.05,2.33,6.55,3.12,31.98,9.31,66.63,7.06,98.05-3.27,8-2.63,15.89-5.74,23.49-9.5,1.88-.89,3.73-1.85,5.56-2.85,4-2.04,7.27-4.96,9.71-8.39,6.5-9.08,7.26-21.78.63-31.66-.23-.35-.47-.69-.71-1.02-8.71-11.98-25.41-15.09-37.89-6.83-7.99,5.6-17,10.34-26.54,14.04-12.44,4.82-25.74,7.82-38.78,8.54-5.23.29-10.45.15-15.65-.35-.37-.08-9.59-2.14-15.11-7.15-5.64-5.12-9.94-10.8-12.14-9.68-2.2,1.11-1.63,7.17,1.74,11.86,0,0-4.25,0-6.68-2.65-2.43-2.62-2.56-7.8-5.91-6.99-3.35.79-4.75,4.16-4.74,6.36,0,0-4.59,1.95-2.49,10.92,0,0-2.36,3.18-.76,8.76,0,0-.23,7.77,5.59,14.31Z" style="fill: #eaac93; stroke-width: 0px;"/>
            <path d="m250.49,316.58c.57,3.85,1.87,7.41,3.74,10.56.33.56.67,1.08,1.05,1.61,1.88-.89,3.73-1.85,5.56-2.85,4-2.04,7.27-4.96,9.71-8.39,6.49-7.85,8.4-18.99,4.02-28.95-.64-1.45-1.29-2.88-1.95-4.29-.73.15-1.45.34-2.16.56-13.35,4.16-22.05,17.5-19.96,31.76Z" style="fill: #222221; mix-blend-mode: overlay; opacity: .3; stroke-width: 0px;"/>
            <g>
              <path d="m206.02,292.03c5.2-2.76,11.52-5.05,16.72-7.81" style="fill: none; stroke: #0f1109; stroke-linecap: round; stroke-miterlimit: 10; stroke-width: 1.11px;"/>
              <path d="m108.77,291.97s1.33,7.47,5.82,11.42" style="fill: none; stroke: #0f1109; stroke-linecap: round; stroke-miterlimit: 10; stroke-width: 1.11px;"/>
              <path d="m106.28,302.89s1.5,5.56,5.9,7.85" style="fill: none; stroke: #0f1109; stroke-linecap: round; stroke-miterlimit: 10; stroke-width: 1.11px;"/>
              <path d="m105.52,311.65s1.95,6.07,6.67,7.75" style="fill: none; stroke: #0f1109; stroke-linecap: round; stroke-miterlimit: 10; stroke-width: 1.11px;"/>
            </g>
          </g>
          <circle cx="168.53" cy="141.69" r="7.61" style="fill: none; stroke: #0f1109; stroke-linecap: round; stroke-miterlimit: 10; stroke-width: 1.11px;"/>
          <circle cx="150.6" cy="141.69" r="7.61" style="fill: none; stroke: #0f1109; stroke-linecap: round; stroke-miterlimit: 10; stroke-width: 1.11px;"/>
          <g>
            <path d="m210.68,307.41c-2.41,3.66-5.93,7.31-8.85,10.06-2.92,2.75-5.48,3.83-13.45,8.16-29.26,15.92-62.72,17.13-95.31,11.47-8.29-1.44-16.56-3.37-24.62-5.98-1.99-.61-3.96-1.29-5.91-2.01-4.26-1.44-7.91-3.85-10.82-6.89-7.75-8.04-10.35-20.49-5.22-31.23.18-.38.37-.75.56-1.11,6.88-13.12,22.95-18.63,36.49-12.26,8.72,4.38,18.33,7.76,28.29,10.03,13.01,2.96,26.61,4,39.61,2.81,5.22-.48,10.36-1.37,15.43-2.62.35-.14,9.18-3.51,13.91-9.27,4.84-5.89,8.27-12.13,10.61-11.34,2.34.77,2.65,6.85,0,11.99,0,0,4.2-.63,6.23-3.59,2.03-2.95,1.4-8.09,4.83-7.78,3.43.3,5.3,3.43,5.62,5.6,0,0,4.83,1.26,4.05,10.44,0,0,2.8,2.8,2.03,8.55,0,0,1.36,7.65-3.45,14.97Z" style="fill: #eaac93; stroke-width: 0px;"/>
            <path d="m71.41,318.4c0,3.89-.77,7.6-2.16,10.99-.24.6-.5,1.17-.8,1.74-1.99-.61-3.96-1.29-5.91-2.01-4.26-1.44-7.91-3.85-10.82-6.89-7.56-6.83-11.07-17.57-8.18-28.06.42-1.52.86-3.03,1.31-4.53.75.04,1.48.12,2.22.24,13.81,2.18,24.36,14.11,24.36,28.52Z" style="fill: #222221; mix-blend-mode: overlay; opacity: .3; stroke-width: 0px;"/>
            <g>
              <path d="m204.48,268.43s8.41,4.94-.54,17.17" style="fill: none; stroke: #0f1109; stroke-linecap: round; stroke-miterlimit: 10; stroke-width: 1.11px;"/>
              <path d="m209.75,274.53s6.23,8.64-2.35,17.98" style="fill: none; stroke: #0f1109; stroke-linecap: round; stroke-miterlimit: 10; stroke-width: 1.11px;"/>
              <path d="m213.37,285.93s3.72,10.89-4.72,15.16" style="fill: none; stroke: #0f1109; stroke-linecap: round; stroke-miterlimit: 10; stroke-width: 1.11px;"/>
              <path d="m94.17,282.34c5.55,1.98,11.95,3.91,17.68,5.3,22.5,5.47,39.59,2.81,48.05,1.67,8.46-1.14,14.06-5.05,14.06-5.05,0,0,2.97-1.31,6.82-5.7,3.85-4.39,6.92-9.27,7.97-10.13" style="fill: none; stroke: #0f1109; stroke-linecap: round; stroke-miterlimit: 10; stroke-width: 1.11px;"/>
            </g>
            <path d="m214.38,295.43s.11,13.35-16.12,24.76c0,0-31.31,20.56-67.93,19.99" style="fill: none; stroke: #0f1109; stroke-linecap: round; stroke-miterlimit: 10; stroke-width: 1.11px;"/>
            <path d="m191.4,267.33s4.19,1.37,0,12.37" style="fill: none; stroke: #0f1109; stroke-linecap: round; stroke-miterlimit: 10; stroke-width: 1.11px;"/>
            <path d="m202.16,267.98s-1.43-.97-2.79,4.11-3.9,6.39-5.64,6.94" style="fill: none; stroke: #0f1109; stroke-linecap: round; stroke-miterlimit: 10; stroke-width: 1.11px;"/>
          </g>
          <circle cx="132.78" cy="125.58" r="12.29" style="fill: #31394b; stroke-width: 0px;"/>
          <circle cx="182.03" cy="132.08" r="7.63" style="fill: #31394b; stroke-width: 0px;"/>
          <circle cx="187.07" cy="124.28" r="7.63" style="fill: #31394b; stroke-width: 0px;"/>
          <circle cx="156.54" cy="121.91" r="7.11" style="fill: #31394b; stroke-width: 0px;"/>
          <circle cx="190.35" cy="134.71" r="7.11" style="fill: #31394b; stroke-width: 0px;"/>
          <circle cx="126.45" cy="134.08" r="7.11" style="fill: #31394b; stroke-width: 0px;"/>
          <circle cx="176.88" cy="115.52" r="10.19" style="fill: #31394b; stroke-width: 0px;"/>
          <circle cx="145.16" cy="115.6" r="10.19" style="fill: #31394b; stroke-width: 0px;"/>
          <circle cx="160.92" cy="110.34" r="10.19" style="fill: #31394b; stroke-width: 0px;"/>
          <circle cx="171.11" cy="120.53" r="10.19" style="fill: #31394b; stroke-width: 0px;"/>
          <path d="m205.28,375.31s.93,25.23,35.9,32.18" style="fill: none; stroke: #fff; stroke-miterlimit: 10; stroke-width: 1.48px;"/>
          <path d="m104.96,372.98s-.36,8.27-4.71,15.75" style="fill: none; stroke: #fff; stroke-miterlimit: 10; stroke-width: 1.48px;"/>
        </g>
        <g>
          <rect x="227.85" y="125.13" width="197.59" height="11.35" style="fill: #43434d; stroke-width: 0px;"/>
          <rect x="307.75" y="225.86" width="154.64" height="11.35" style="fill: #43434d; stroke-width: 0px;"/>
          <g>
            <g>
              <rect x="321.75" y="182.71" width="69.1" height="17.2" transform="translate(164.99 547.61) rotate(-90)" style="fill: #e06f5b; stroke-width: 0px;"/>
              <path d="m352.69,159.51h7.22c0,1.65,1.34,2.98,3.01,2.98v57.92c-1.67,0-3.01,1.33-3.01,2.98h-7.22c0-1.65-1.34-2.98-3.01-2.98v-57.92c1.67,0,3.01-1.33,3.01-2.98Z" style="fill: none; stroke: #fff; stroke-miterlimit: 10; stroke-width: 1.15px;"/>
            </g>
            <g>
              <rect x="291.32" y="181.4" width="69.85" height="19.09" transform="translate(135.31 517.18) rotate(-90)" style="fill: #857ff0; stroke-width: 0px;"/>
              <line x1="335.84" y1="162.55" x2="316.7" y2="162.55" style="fill: none; stroke: #e8c245; stroke-miterlimit: 10; stroke-width: 1.15px;"/>
              <line x1="335.84" y1="165.72" x2="316.7" y2="165.72" style="fill: none; stroke: #e8c245; stroke-miterlimit: 10; stroke-width: 1.15px;"/>
              <line x1="335.84" y1="217.94" x2="316.7" y2="217.94" style="fill: none; stroke: #e8c245; stroke-miterlimit: 10; stroke-width: 1.15px;"/>
              <line x1="335.84" y1="221.11" x2="316.7" y2="221.11" style="fill: none; stroke: #e8c245; stroke-miterlimit: 10; stroke-width: 1.15px;"/>
            </g>
            <rect x="335.79" y="160.32" width="11.91" height="65.54" style="fill: #e8c245; stroke-width: 0px;"/>
            <g>
              <rect x="364.9" y="149.74" width="11.91" height="76.12" style="fill: #857ff0; stroke-width: 0px;"/>
              <g>
                <line x1="365.73" y1="220.66" x2="376.12" y2="220.66" style="fill: none; stroke: #fff; stroke-miterlimit: 10; stroke-width: 1.15px;"/>
                <line x1="365.73" y1="216.94" x2="376.12" y2="216.94" style="fill: none; stroke: #fff; stroke-miterlimit: 10; stroke-width: 1.15px;"/>
              </g>
            </g>
            <g>
              <g>
                <path d="m385.84,174.37c0-2.15.87-4.1,2.28-5.51,1.41-1.41,3.36-2.28,5.52-2.28h62.62v15.6h-62.62c-4.31,0-7.8-3.49-7.8-7.8Z" style="fill: #e8c245; stroke-width: 0px;"/>
                <path d="m456.26,168.44v11.87h-62.45c-3.36,0-6.1-2.66-6.1-5.94,0-1.58.63-3.07,1.79-4.19,1.15-1.12,2.68-1.74,4.31-1.74h62.45Z" style="fill: #fff; stroke-width: 0px;"/>
                <path d="m367.53,174.37c0-2.15.87-4.1,2.28-5.51,1.41-1.41,3.36-2.28,5.52-2.28h65.28v.06c-1.78.21-3.37,1.02-4.56,2.22-1.41,1.41-2.28,3.36-2.28,5.51,0,3.99,2.99,7.28,6.85,7.74v.06h-65.28c-4.31,0-7.8-3.49-7.8-7.8Z" style="fill: #e8c245; stroke-width: 0px;"/>
                <polygon points="442.22 177.26 439.75 175.39 437.28 177.26 437.28 170.74 442.22 170.74 442.22 177.26" style="fill: #e06f5b; stroke-width: 0px;"/>
              </g>
              <path d="m436.26,180.09s-5.4-4.95-.21-11.23" style="fill: none; stroke: #0f1109; stroke-linecap: round; stroke-miterlimit: 10; stroke-width: .7px;"/>
              <polyline points="375.33 166.57 456.26 166.57 456.26 182.17" style="fill: none; stroke: #0f1109; stroke-linecap: round; stroke-miterlimit: 10; stroke-width: .7px;"/>
              <line x1="437.76" y1="170.74" x2="453.98" y2="170.74" style="fill: none; stroke: #0f1109; stroke-linecap: round; stroke-miterlimit: 10; stroke-width: .7px;"/>
            </g>
            <g>
              <g>
                <path d="m452.47,218.06c0-2.15-.87-4.1-2.28-5.51-1.41-1.41-3.36-2.28-5.52-2.28h-62.62s0,15.6,0,15.6h62.62c4.31,0,7.8-3.49,7.8-7.8Z" style="fill: #e06f5b; stroke-width: 0px;"/>
                <path d="m382.06,212.13v11.87s62.45,0,62.45,0c3.36,0,6.1-2.66,6.1-5.94,0-1.58-.63-3.07-1.79-4.19-1.15-1.12-2.68-1.74-4.31-1.74h-62.45Z" style="fill: #fff; stroke-width: 0px;"/>
                <path d="m456.26,210.27h-58.56v.06c1.78.21,3.37,1.02,4.56,2.22,1.41,1.41,2.28,3.36,2.28,5.51,0,3.99-2.99,7.28-6.85,7.74v.06h58.56v-15.6Z" style="fill: #e06f5b; stroke-width: 0px;"/>
                <polygon points="396.1 220.95 398.57 219.09 401.04 220.95 401.04 214.44 396.1 214.44 396.1 220.95" style="fill: #e8c245; stroke-width: 0px;"/>
              </g>
              <path d="m401.66,224s6.44-4.68.16-11.87" style="fill: none; stroke: #0f1109; stroke-linecap: round; stroke-miterlimit: 10; stroke-width: .7px;"/>
              <line x1="401.04" y1="220.95" x2="384.4" y2="220.95" style="fill: none; stroke: #0f1109; stroke-linecap: round; stroke-miterlimit: 10; stroke-width: .7px;"/>
              <rect x="437.45" y="213.24" width="14.21" height="9.65" style="fill: #fff; stroke-width: 0px;"/>
              <circle cx="444.56" cy="218.06" r="3.18" style="fill: #e06f5b; stroke-width: 0px;"/>
            </g>
            <g>
              <rect x="379.69" y="196.61" width="83.69" height="13.73" transform="translate(843.07 406.96) rotate(180)" style="fill: #78cd72; stroke-width: 0px;"/>
              <g>
                <line x1="384.07" y1="210.27" x2="462.4" y2="210.27" style="fill: none; stroke: #0f1109; stroke-linecap: round; stroke-miterlimit: 10; stroke-width: .7px;"/>
                <line x1="379.69" y1="196.61" x2="462.4" y2="196.49" style="fill: none; stroke: #0f1109; stroke-linecap: round; stroke-miterlimit: 10; stroke-width: .7px;"/>
              </g>
            </g>
            <g>
              <rect x="376.69" y="182.45" width="83.69" height="13.73" transform="translate(837.07 378.64) rotate(180)" style="fill: #78cd72; stroke-width: 0px;"/>
              <line x1="376.69" y1="182.45" x2="459.4" y2="182.33" style="fill: none; stroke: #0f1109; stroke-linecap: round; stroke-miterlimit: 10; stroke-width: .7px;"/>
            </g>
            <ellipse cx="341.75" cy="172.86" rx="3.72" ry="7.14" style="fill: none; stroke: #fff; stroke-miterlimit: 10; stroke-width: 1.15px;"/>
            <line x1="345.47" y1="220.66" x2="338.02" y2="220.66" style="fill: none; stroke: #fff; stroke-miterlimit: 10; stroke-width: 1.15px;"/>
            <line x1="347.7" y1="156.76" x2="347.7" y2="225.86" style="fill: none; stroke: #0f1109; stroke-linecap: round; stroke-miterlimit: 10; stroke-width: .7px;"/>
            <line x1="316.7" y1="156.39" x2="316.7" y2="225.49" style="fill: none; stroke: #0f1109; stroke-linecap: round; stroke-miterlimit: 10; stroke-width: .7px;"/>
            <line x1="364.9" y1="149.74" x2="364.9" y2="225.86" style="fill: none; stroke: #0f1109; stroke-linecap: round; stroke-miterlimit: 10; stroke-width: .7px;"/>
          </g>
          <g>
            <path d="m440.52,201.11c.55.58.89,1.36.89,2.23s-.34,1.66-.89,2.23c-.52.57-1.3.94-2.11.94s-1.62-.37-2.16-.94c-.55-.57-.87-1.36-.87-2.23s.33-1.65.87-2.23c.54-.58,1.31-.94,2.16-.94s1.59.36,2.11.94Zm-.12,2.23c0-.6-.24-1.16-.6-1.54-.37-.4-.86-.63-1.39-.63-.56,0-1.06.23-1.43.63-.37.39-.6.94-.6,1.54s.23,1.16.6,1.53c.37.4.86.63,1.43.63.53,0,1.02-.24,1.39-.63.36-.38.6-.93.6-1.53Z" style="fill: #fff; stroke-width: 0px;"/>
            <path d="m445.46,203.82c0-.29.24-.53.52-.53h1.66c.28,0,.52.24.52.53s-.24.52-.52.52h-1.66c-.28,0-.52-.24-.52-.52Z" style="fill: #fff; stroke-width: 0px;"/>
            <path d="m456.44,201.12l-3.25,4.42h2.84c.27,0,.49.22.49.49s-.22.49-.49.49h-3.8s-.05,0-.09,0c0,0-.02,0-.03,0-.02,0-.04,0-.06,0,0,0-.02,0-.03-.03,0,0-.03,0-.04-.02s-.03,0-.04-.02h0l-.03-.03s-.03-.03-.04-.04c-.02,0-.03-.02-.04-.03s-.02-.03-.03-.04c0-.03-.02-.04-.02-.04,0-.02-.03-.03-.03-.04,0-.02,0-.04-.02-.05,0,0,0-.02,0-.04,0-.03,0-.04,0-.06v-.03h0s0-.05,0-.07v-.04s0-.03.02-.04c0,0,0-.03,0-.04.02,0,.03-.03.03-.04,0,0,.02-.03.03-.04h0l3.24-4.43h-2.85c-.27,0-.49-.23-.49-.49s.21-.49.49-.49h3.87s.03,0,.04,0c.03,0,.04,0,.05,0,0,0,.03,0,.04.02.03,0,.04.02.04.03.02,0,.03.02.04.03h0s.02.02.03.03c.02,0,.03.03.04.04s.02.03.03.04c.02,0,.03.02.04.04s.02.04.03.04c0,0,0,.03.02.04,0,.03,0,.04,0,.05.02.02.02.03.02.04,0,.03,0,.04,0,.05v.1s0,.03,0,.04c0,.03-.02.04-.02.05,0,.02,0,.03-.02.05,0,0,0,.02-.02.03,0,.02-.02.04-.03.04v.02Z" style="fill: #fff; stroke-width: 0px;"/>
          </g>
          <g>
            <path d="m434.75,192.02h-2.14l-.43,1.15c-.08.19-.26.31-.46.31-.06,0-.12,0-.17-.03-.26-.1-.38-.38-.29-.63l1.95-5.2c.08-.19.27-.32.47-.31.2,0,.39.12.47.31l1.95,5.2c.09.26-.04.54-.29.63-.04.02-.11.03-.17.03-.19,0-.38-.11-.45-.31l-.43-1.15Zm-.36-.97l-.71-1.9-.71,1.9h1.43Z" style="fill: #fff; stroke-width: 0px;"/>
            <path d="m439.6,190.78c0-.29.24-.53.52-.53h1.66c.28,0,.52.24.52.53s-.24.52-.52.52h-1.66c-.28,0-.52-.24-.52-.52Z" style="fill: #fff; stroke-width: 0px;"/>
            <path d="m447.15,192.99c0,.26-.22.49-.48.49-.27,0-.49-.22-.49-.49v-5.12h0c0-.16.06-.32.19-.41.22-.15.52-.11.67.11l2.85,3.94v-3.63c0-.26.21-.48.48-.48s.49.22.49.48v5.12c0,.26-.22.49-.49.49-.14,0-.27-.07-.36-.18-.02-.02-.04-.04-.04-.05l-2.82-3.92v3.66Z" style="fill: #fff; stroke-width: 0px;"/>
          </g>
          <g>
            <g>
              <g>
                <rect x="238.28" y="84.42" width="62.28" height="17.02" transform="translate(127.95 340.33) rotate(-79.27)" style="fill: #e8c245; stroke-width: 0px;"/>
                <path d="m280.08,68.27l-1.9,10.03c-.15-.03-.3-.05-.46-.05-1.11,0-2.03.78-2.25,1.82l-6.98-1.32c.04-.16.06-.32.06-.5,0-1.14-.82-2.09-1.91-2.27l1.91-10.03c.16.04.32.05.49.05,1.08,0,1.99-.74,2.24-1.75l6.98,1.32c-.03.14-.04.28-.04.43,0,1.13.81,2.07,1.88,2.27Z" style="fill: none; stroke: #fff; stroke-miterlimit: 10;"/>
              </g>
              <line x1="283.57" y1="63.92" x2="271.97" y2="125.1" style="fill: none; stroke: #0f1109; stroke-linecap: round; stroke-miterlimit: 10; stroke-width: .7px;"/>
              <line x1="266.85" y1="60.75" x2="255.26" y2="121.94" style="fill: none; stroke: #0f1109; stroke-linecap: round; stroke-miterlimit: 10; stroke-width: .7px;"/>
            </g>
            <g>
              <g>
                <rect x="236.87" y="76.23" width="19.53" height="47.04" transform="translate(40.5 -68.44) rotate(17.19)" style="fill: #78cd72; stroke-width: 0px;"/>
                <rect x="245.85" y="78.44" width="10.58" height="13.53" transform="translate(406.76 -129.54) rotate(107.19)" style="fill: none; stroke: #fff; stroke-miterlimit: 10;"/>
                <rect x="241.44" y="92.69" width="10.58" height="13.53" transform="translate(414.67 -106.85) rotate(107.19)" style="fill: none; stroke: #fff; stroke-miterlimit: 10;"/>
                <rect x="237.03" y="106.95" width="10.58" height="13.53" transform="translate(422.57 -84.17) rotate(107.19)" style="fill: none; stroke: #fff; stroke-miterlimit: 10;"/>
              </g>
              <line x1="244.26" y1="74.4" x2="230.36" y2="119.33" style="fill: none; stroke: #0f1109; stroke-linecap: round; stroke-miterlimit: 10; stroke-width: .7px;"/>
              <line x1="262.89" y1="80.21" x2="248.99" y2="125.15" style="fill: none; stroke: #0f1109; stroke-linecap: round; stroke-miterlimit: 10; stroke-width: .7px;"/>
            </g>
            <g>
              <g>
                <rect x="288.53" y="104.67" width="127.38" height="20.44" style="fill: #e06f5b; stroke-width: 0px;"/>
                <g>
                  <rect x="391.39" y="108.5" width="18.82" height="12.65" style="fill: #fff; stroke-width: 0px;"/>
                  <g>
                    <rect x="392.63" y="109.67" width="16.35" height="3.72" style="stroke-width: 0px;"/>
                    <rect x="392.63" y="112.97" width="16.35" height="3.72" style="fill: #e06f5b; stroke-width: 0px;"/>
                    <rect x="392.63" y="116.27" width="16.35" height="3.72" style="fill: #e8c245; stroke-width: 0px;"/>
                  </g>
                </g>
                <g>
                  <line x1="292.8" y1="107.68" x2="292.8" y2="122.52" style="fill: none; stroke: #fff; stroke-miterlimit: 10;"/>
                  <line x1="296.31" y1="107.68" x2="296.31" y2="122.52" style="fill: none; stroke: #fff; stroke-miterlimit: 10;"/>
                  <line x1="299.81" y1="107.68" x2="299.81" y2="122.52" style="fill: none; stroke: #fff; stroke-miterlimit: 10;"/>
                </g>
              </g>
              <g>
                <g>
                  <path d="m367.78,96.37c0,2.29-.93,4.36-2.43,5.87-1.5,1.5-3.58,2.43-5.87,2.43h-66.67v-16.6h66.67c4.59,0,8.3,3.72,8.3,8.3Z" style="fill: #857ff0; stroke-width: 0px;"/>
                  <path d="m292.8,102.68v-12.63h66.49c3.58,0,6.5,2.83,6.5,6.32,0,1.68-.68,3.27-1.9,4.46-1.23,1.19-2.86,1.85-4.59,1.85h-66.49Z" style="fill: #fff; stroke-width: 0px;"/>
                  <path d="m387.27,96.37c0,2.29-.93,4.36-2.43,5.87-1.5,1.5-3.58,2.43-5.87,2.43h-69.5v-.06c1.89-.22,3.58-1.09,4.86-2.37,1.5-1.5,2.43-3.58,2.43-5.87,0-4.24-3.18-7.75-7.29-8.24v-.06h69.5c4.59,0,8.3,3.72,8.3,8.3Z" style="fill: #857ff0; stroke-width: 0px;"/>
                  <polygon points="313.01 100.23 310.38 98.24 307.75 100.23 307.75 93.29 313.01 93.29 313.01 100.23" style="fill: #e06f5b; stroke-width: 0px;"/>
                </g>
                <path d="m314.1,90.28s5.75,5.27.22,11.96" style="fill: none; stroke: #0f1109; stroke-linecap: round; stroke-miterlimit: 10; stroke-width: .7px;"/>
                <polyline points="378.97 104.67 292.8 104.67 292.8 88.06" style="fill: none; stroke: #0f1109; stroke-linecap: round; stroke-miterlimit: 10; stroke-width: .7px;"/>
                <line x1="313.01" y1="93.29" x2="295.74" y2="93.29" style="fill: none; stroke: #0f1109; stroke-linecap: round; stroke-miterlimit: 10; stroke-width: .7px;"/>
              </g>
              <g>
                <g>
                  <path d="m290.44,65.1c0,2.29.93,4.36,2.43,5.87,1.5,1.5,3.58,2.43,5.87,2.43h66.67s0-16.6,0-16.6h-66.67c-4.59,0-8.3,3.72-8.3,8.3Z" style="fill: #e06f5b; stroke-width: 0px;"/>
                  <path d="m365.41,71.41v-12.63s-66.49,0-66.49,0c-3.58,0-6.5,2.83-6.5,6.32,0,1.68.68,3.27,1.9,4.46,1.23,1.19,2.86,1.85,4.59,1.85h66.49Z" style="fill: #fff; stroke-width: 0px;"/>
                  <path d="m290.44,65.1c0,2.29.93,4.36,2.43,5.87,1.5,1.5,3.58,2.43,5.87,2.43h50.01s0-.06,0-.06c-1.89-.22-3.58-1.09-4.86-2.37-1.5-1.5-2.43-3.58-2.43-5.87,0-4.24,3.18-7.75,7.29-8.24v-.06h-50.01c-4.59,0-8.3,3.72-8.3,8.3Z" style="fill: #e06f5b; stroke-width: 0px;"/>
                  <polygon points="345.2 68.96 347.83 66.97 350.46 68.96 350.46 62.02 345.2 62.02 345.2 68.96" style="fill: #e8c245; stroke-width: 0px;"/>
                </g>
                <path d="m344.54,58.78s-6.85,4.99-.17,12.63" style="fill: none; stroke: #0f1109; stroke-linecap: round; stroke-miterlimit: 10; stroke-width: .7px;"/>
                <line x1="345.2" y1="62.02" x2="362.92" y2="62.02" style="fill: none; stroke: #0f1109; stroke-linecap: round; stroke-miterlimit: 10; stroke-width: .7px;"/>
                <line x1="322.43" y1="61.44" x2="302.56" y2="61.44" style="fill: none; stroke: #fff; stroke-miterlimit: 10;"/>
                <line x1="322.43" y1="65.43" x2="302.56" y2="65.43" style="fill: none; stroke: #fff; stroke-miterlimit: 10;"/>
                <line x1="322.43" y1="69.43" x2="302.56" y2="69.43" style="fill: none; stroke: #fff; stroke-miterlimit: 10;"/>
                <line x1="365.41" y1="58.78" x2="365.41" y2="71.41" style="fill: none; stroke: #0f1109; stroke-linecap: round; stroke-miterlimit: 10; stroke-width: .7px;"/>
              </g>
              <g>
                <rect x="282.02" y="73.31" width="89.1" height="14.62" style="fill: #78cd72; stroke-width: 0px;"/>
                <g>
                  <line x1="366.46" y1="73.4" x2="283.07" y2="73.4" style="fill: none; stroke: #0f1109; stroke-linecap: round; stroke-miterlimit: 10; stroke-width: .7px;"/>
                  <line x1="371.13" y1="87.93" x2="283.07" y2="88.06" style="fill: none; stroke: #0f1109; stroke-linecap: round; stroke-miterlimit: 10; stroke-width: .7px;"/>
                </g>
                <g>
                  <rect x="287.17" y="76.06" width="14.68" height="9.87" style="fill: #fff; stroke-width: 0px;"/>
                  <g>
                    <rect x="286.21" y="78.68" width="8.37" height="4.64" transform="translate(209.4 371.4) rotate(-90)" style="fill: #78cd72; stroke-width: 0px;"/>
                    <rect x="290.33" y="78.68" width="8.37" height="4.64" transform="translate(213.51 375.51) rotate(-90)" style="fill: #fff; stroke-width: 0px;"/>
                    <rect x="294.44" y="78.68" width="8.37" height="4.64" transform="translate(217.63 379.62) rotate(-90)" style="fill: #e06f5b; stroke-width: 0px;"/>
                  </g>
                </g>
              </g>
            </g>
          </g>
        </g>
      </g>
    </g>
    <g id="TEXT">
      <text transform="translate(130.06 249.96) rotate(-9.79)" style="fill: #fff; font-family: Quicksand-Bold, &apos;Quicksand Bold&apos;; font-size: 10.3px; font-weight: 700;"><tspan x="0" y="0">G</tspan><tspan x="6.66" y="0" style="letter-spacing: -.04em;">L</tspan><tspan x="11.12" y="0" style="letter-spacing: 0em;">OSSA</tspan><tspan x="34.68" y="0" style="letter-spacing: -.01em;">R</tspan><tspan x="40.11" y="0">Y</tspan></text>
    </g>
  </g>
</svg>